<?xml version="1.0" standalone="no"?>
<!DOCTYPE svg PUBLIC "-//W3C//DTD SVG 1.1//EN" 
  "http://www.w3.org/Graphics/SVG/1.1/DTD/svg11.dtd">
<svg width="32" height="32" viewBox="0 0 32 32"
     xmlns="http://www.w3.org/2000/svg" version="1.1">
<desc>rail.blend, (Blender 3.0.0)</desc>
<polygon stroke="black" stroke-width="1" fill="rgb(204, 204, 204)" fill-opacity="0.25" points="23.000,2.000 23.000,1.000 21.000,1.000 21.000,2.000 " />
<polygon stroke="black" stroke-width="1" fill="rgb(204, 204, 204)" fill-opacity="0.25" points="1.000,13.000 1.000,14.000 15.000,14.000 15.000,13.000 " />
<polygon stroke="black" stroke-width="1" fill="rgb(204, 204, 204)" fill-opacity="0.25" points="21.000,1.000 21.000,2.000 23.000,2.000 23.000,1.000 " />
<polygon stroke="black" stroke-width="1" fill="rgb(204, 204, 204)" fill-opacity="0.25" points="15.000,11.000 15.000,10.000 1.000,10.000 1.000,11.000 " />
<polygon stroke="black" stroke-width="1" fill="rgb(204, 204, 204)" fill-opacity="0.25" points="1.000,13.000 15.000,13.000 15.000,11.000 1.000,11.000 " />
<polygon stroke="black" stroke-width="1" fill="rgb(204, 204, 204)" fill-opacity="0.25" points="15.000,8.000 1.000,8.000 1.000,10.000 15.000,10.000 " />
<polygon stroke="black" stroke-width="1" fill="rgb(204, 204, 204)" fill-opacity="0.25" points="23.000,2.000 23.000,1.000 21.000,1.000 21.000,2.000 " />
<polygon stroke="black" stroke-width="1" fill="rgb(204, 204, 204)" fill-opacity="0.25" points="1.000,13.000 1.000,14.000 15.000,14.000 15.000,13.000 " />
<polygon stroke="black" stroke-width="1" fill="rgb(204, 204, 204)" fill-opacity="0.25" points="21.000,1.000 21.000,2.000 23.000,2.000 23.000,1.000 " />
<polygon stroke="black" stroke-width="1" fill="rgb(204, 204, 204)" fill-opacity="0.25" points="15.000,11.000 15.000,10.000 1.000,10.000 1.000,11.000 " />
<polygon stroke="black" stroke-width="1" fill="rgb(204, 204, 204)" fill-opacity="0.25" points="1.000,13.000 15.000,13.000 15.000,11.000 1.000,11.000 " />
<polygon stroke="black" stroke-width="1" fill="rgb(204, 204, 204)" fill-opacity="0.25" points="15.000,8.000 1.000,8.000 1.000,10.000 15.000,10.000 " />
<polygon stroke="black" stroke-width="1" fill="rgb(204, 204, 204)" fill-opacity="0.25" points="23.000,2.000 23.000,1.000 21.000,1.000 21.000,2.000 " />
<polygon stroke="black" stroke-width="1" fill="rgb(204, 204, 204)" fill-opacity="0.25" points="1.000,13.000 1.000,14.000 15.000,14.000 15.000,13.000 " />
<polygon stroke="black" stroke-width="1" fill="rgb(204, 204, 204)" fill-opacity="0.25" points="21.000,1.000 21.000,2.000 23.000,2.000 23.000,1.000 " />
<polygon stroke="black" stroke-width="1" fill="rgb(204, 204, 204)" fill-opacity="0.25" points="15.000,11.000 15.000,10.000 1.000,10.000 1.000,11.000 " />
<polygon stroke="black" stroke-width="1" fill="rgb(204, 204, 204)" fill-opacity="0.25" points="1.000,13.000 15.000,13.000 15.000,11.000 1.000,11.000 " />
<polygon stroke="black" stroke-width="1" fill="rgb(204, 204, 204)" fill-opacity="0.25" points="15.000,8.000 1.000,8.000 1.000,10.000 15.000,10.000 " />
<polygon stroke="black" stroke-width="1" fill="rgb(204, 204, 204)" fill-opacity="0.25" points="23.000,2.000 23.000,1.000 21.000,1.000 21.000,2.000 " />
<polygon stroke="black" stroke-width="1" fill="rgb(204, 204, 204)" fill-opacity="0.25" points="1.000,13.000 1.000,14.000 15.000,14.000 15.000,13.000 " />
<polygon stroke="black" stroke-width="1" fill="rgb(204, 204, 204)" fill-opacity="0.25" points="21.000,1.000 21.000,2.000 23.000,2.000 23.000,1.000 " />
<polygon stroke="black" stroke-width="1" fill="rgb(204, 204, 204)" fill-opacity="0.25" points="15.000,11.000 15.000,10.000 1.000,10.000 1.000,11.000 " />
<polygon stroke="black" stroke-width="1" fill="rgb(204, 204, 204)" fill-opacity="0.25" points="1.000,13.000 15.000,13.000 15.000,11.000 1.000,11.000 " />
<polygon stroke="black" stroke-width="1" fill="rgb(204, 204, 204)" fill-opacity="0.25" points="15.000,8.000 1.000,8.000 1.000,10.000 15.000,10.000 " />
<polygon stroke="black" stroke-width="1" fill="rgb(204, 204, 204)" fill-opacity="0.25" points="17.000,4.000 17.000,3.000 1.000,3.000 1.000,4.000 " />
<polygon stroke="black" stroke-width="1" fill="rgb(204, 204, 204)" fill-opacity="0.25" points="18.000,1.000 18.000,2.000 20.000,2.000 20.000,1.000 " />
<polygon stroke="black" stroke-width="1" fill="rgb(204, 204, 204)" fill-opacity="0.25" points="1.000,6.000 1.000,7.000 17.000,7.000 17.000,6.000 " />
<polygon stroke="black" stroke-width="1" fill="rgb(204, 204, 204)" fill-opacity="0.25" points="18.000,2.000 18.000,3.000 20.000,3.000 20.000,2.000 " />
<polygon stroke="black" stroke-width="1" fill="rgb(204, 204, 204)" fill-opacity="0.25" points="1.000,4.000 1.000,6.000 17.000,6.000 17.000,4.000 " />
<polygon stroke="black" stroke-width="1" fill="rgb(204, 204, 204)" fill-opacity="0.25" points="1.000,1.000 1.000,3.000 17.000,3.000 17.000,1.000 " />
<polygon stroke="black" stroke-width="1" fill="rgb(204, 204, 204)" fill-opacity="0.25" points="5.000,28.000 1.000,28.000 1.000,30.000 5.000,30.000 " />
<polygon stroke="black" stroke-width="1" fill="rgb(204, 204, 204)" fill-opacity="0.25" points="17.000,4.000 17.000,3.000 1.000,3.000 1.000,4.000 " />
<polygon stroke="black" stroke-width="1" fill="rgb(204, 204, 204)" fill-opacity="0.25" points="18.000,1.000 18.000,2.000 20.000,2.000 20.000,1.000 " />
<polygon stroke="black" stroke-width="1" fill="rgb(204, 204, 204)" fill-opacity="0.25" points="1.000,6.000 1.000,7.000 17.000,7.000 17.000,6.000 " />
<polygon stroke="black" stroke-width="1" fill="rgb(204, 204, 204)" fill-opacity="0.25" points="18.000,2.000 18.000,3.000 20.000,3.000 20.000,2.000 " />
<polygon stroke="black" stroke-width="1" fill="rgb(204, 204, 204)" fill-opacity="0.25" points="1.000,4.000 1.000,6.000 17.000,6.000 17.000,4.000 " />
<polygon stroke="black" stroke-width="1" fill="rgb(204, 204, 204)" fill-opacity="0.25" points="1.000,1.000 1.000,3.000 17.000,3.000 17.000,1.000 " />
<polygon stroke="black" stroke-width="1" fill="rgb(204, 204, 204)" fill-opacity="0.25" points="1.000,21.000 1.000,25.000 15.000,25.000 15.000,21.000 " />
<polygon stroke="black" stroke-width="1" fill="rgb(204, 204, 204)" fill-opacity="0.25" points="1.000,30.000 5.000,30.000 5.000,28.000 1.000,28.000 " />
<polygon stroke="black" stroke-width="1" fill="rgb(204, 204, 204)" fill-opacity="0.25" points="15.000,19.000 15.000,15.000 1.000,15.000 1.000,19.000 " />
<polygon stroke="black" stroke-width="1" fill="rgb(204, 204, 204)" fill-opacity="0.25" points="1.000,21.000 15.000,21.000 15.000,19.000 1.000,19.000 " />
<polygon stroke="black" stroke-width="1" fill="rgb(204, 204, 204)" fill-opacity="0.25" points="15.000,25.000 1.000,25.000 1.000,27.000 15.000,27.000 " />
<polygon stroke="black" stroke-width="1" fill="rgb(204, 204, 204)" fill-opacity="0.25" points="27.000,31.000 29.000,31.000 29.000,30.000 27.000,30.000 " />
<polygon stroke="black" stroke-width="1" fill="rgb(204, 204, 204)" fill-opacity="0.25" points="20.000,31.000 22.000,31.000 22.000,29.000 20.000,29.000 " />
<polygon stroke="black" stroke-width="1" fill="rgb(204, 204, 204)" fill-opacity="0.25" points="27.000,30.000 25.000,30.000 25.000,31.000 27.000,31.000 " />
<polygon stroke="black" stroke-width="1" fill="rgb(204, 204, 204)" fill-opacity="0.25" points="29.000,31.000 31.000,31.000 31.000,30.000 29.000,30.000 " />
<polygon stroke="black" stroke-width="1" fill="rgb(204, 204, 204)" fill-opacity="0.25" points="22.000,31.000 22.000,29.000 20.000,29.000 20.000,31.000 " />
<polygon stroke="black" stroke-width="1" fill="rgb(204, 204, 204)" fill-opacity="0.25" points="23.000,31.000 25.000,31.000 25.000,30.000 23.000,30.000 " />
<polygon stroke="black" stroke-width="1" fill="rgb(204, 204, 204)" fill-opacity="0.25" points="22.000,31.000 22.000,29.000 20.000,29.000 20.000,31.000 " />
<polygon stroke="black" stroke-width="1" fill="rgb(204, 204, 204)" fill-opacity="0.25" points="23.000,31.000 25.000,31.000 25.000,30.000 23.000,30.000 " />
<polygon stroke="black" stroke-width="1" fill="rgb(204, 204, 204)" fill-opacity="0.25" points="29.000,31.000 31.000,31.000 31.000,30.000 29.000,30.000 " />
<polygon stroke="black" stroke-width="1" fill="rgb(204, 204, 204)" fill-opacity="0.25" points="27.000,30.000 25.000,30.000 25.000,31.000 27.000,31.000 " />
<polygon stroke="black" stroke-width="1" fill="rgb(204, 204, 204)" fill-opacity="0.25" points="20.000,31.000 22.000,31.000 22.000,29.000 20.000,29.000 " />
<polygon stroke="black" stroke-width="1" fill="rgb(204, 204, 204)" fill-opacity="0.25" points="27.000,31.000 29.000,31.000 29.000,30.000 27.000,30.000 " />
<polygon stroke="black" stroke-width="1" fill="rgb(204, 204, 204)" fill-opacity="0.25" points="31.000,3.000 31.000,1.000 29.000,1.000 29.000,3.000 " />
<polygon stroke="black" stroke-width="1" fill="rgb(204, 204, 204)" fill-opacity="0.25" points="31.000,4.000 18.000,4.000 18.000,6.000 31.000,6.000 " />
<polygon stroke="black" stroke-width="1" fill="rgb(204, 204, 204)" fill-opacity="0.25" points="31.000,6.000 18.000,6.000 18.000,8.000 31.000,8.000 " />
<polygon stroke="black" stroke-width="1" fill="rgb(204, 204, 204)" fill-opacity="0.25" points="31.000,10.000 18.000,10.000 18.000,12.000 31.000,12.000 " />
<polygon stroke="black" stroke-width="1" fill="rgb(204, 204, 204)" fill-opacity="0.25" points="31.000,8.000 18.000,8.000 18.000,10.000 31.000,10.000 " />
<polygon stroke="black" stroke-width="1" fill="rgb(204, 204, 204)" fill-opacity="0.25" points="31.000,1.000 29.000,1.000 29.000,3.000 31.000,3.000 " />
<polygon stroke="black" stroke-width="1" fill="rgb(204, 204, 204)" fill-opacity="0.25" points="31.000,1.000 29.000,1.000 29.000,3.000 31.000,3.000 " />
<polygon stroke="black" stroke-width="1" fill="rgb(204, 204, 204)" fill-opacity="0.25" points="31.000,8.000 18.000,8.000 18.000,10.000 31.000,10.000 " />
<polygon stroke="black" stroke-width="1" fill="rgb(204, 204, 204)" fill-opacity="0.25" points="31.000,10.000 18.000,10.000 18.000,12.000 31.000,12.000 " />
<polygon stroke="black" stroke-width="1" fill="rgb(204, 204, 204)" fill-opacity="0.25" points="31.000,6.000 18.000,6.000 18.000,8.000 31.000,8.000 " />
<polygon stroke="black" stroke-width="1" fill="rgb(204, 204, 204)" fill-opacity="0.25" points="31.000,4.000 18.000,4.000 18.000,6.000 31.000,6.000 " />
<polygon stroke="black" stroke-width="1" fill="rgb(204, 204, 204)" fill-opacity="0.25" points="31.000,3.000 31.000,1.000 29.000,1.000 29.000,3.000 " />
<polygon stroke="black" stroke-width="1" fill="rgb(204, 204, 204)" fill-opacity="0.25" points="20.000,15.000 17.000,15.000 17.000,16.000 20.000,16.000 " />
<polygon stroke="black" stroke-width="1" fill="rgb(204, 204, 204)" fill-opacity="0.25" points="32.000,21.000 16.000,21.000 16.000,23.000 32.000,23.000 " />
<polygon stroke="black" stroke-width="1" fill="rgb(204, 204, 204)" fill-opacity="0.25" points="32.000,23.000 16.000,23.000 16.000,25.000 32.000,25.000 " />
<polygon stroke="black" stroke-width="1" fill="rgb(204, 204, 204)" fill-opacity="0.25" points="32.000,20.000 16.000,20.000 16.000,21.000 32.000,21.000 " />
<polygon stroke="black" stroke-width="1" fill="rgb(204, 204, 204)" fill-opacity="0.25" points="32.000,25.000 16.000,25.000 16.000,27.000 32.000,27.000 " />
<polygon stroke="black" stroke-width="1" fill="rgb(204, 204, 204)" fill-opacity="0.25" points="17.000,16.000 20.000,16.000 20.000,15.000 17.000,15.000 " />
<polygon stroke="black" stroke-width="1" fill="rgb(204, 204, 204)" fill-opacity="0.25" points="17.000,16.000 20.000,16.000 20.000,15.000 17.000,15.000 " />
<polygon stroke="black" stroke-width="1" fill="rgb(204, 204, 204)" fill-opacity="0.25" points="32.000,25.000 16.000,25.000 16.000,27.000 32.000,27.000 " />
<polygon stroke="black" stroke-width="1" fill="rgb(204, 204, 204)" fill-opacity="0.25" points="32.000,20.000 16.000,20.000 16.000,21.000 32.000,21.000 " />
<polygon stroke="black" stroke-width="1" fill="rgb(204, 204, 204)" fill-opacity="0.25" points="32.000,23.000 16.000,23.000 16.000,25.000 32.000,25.000 " />
<polygon stroke="black" stroke-width="1" fill="rgb(204, 204, 204)" fill-opacity="0.25" points="32.000,21.000 16.000,21.000 16.000,23.000 32.000,23.000 " />
<polygon stroke="black" stroke-width="1" fill="rgb(204, 204, 204)" fill-opacity="0.25" points="20.000,15.000 17.000,15.000 17.000,16.000 20.000,16.000 " />
<polygon stroke="black" stroke-width="1" fill="rgb(204, 204, 204)" fill-opacity="0.25" points="18.000,14.000 20.000,14.000 20.000,13.000 18.000,13.000 " />
<polygon stroke="black" stroke-width="1" fill="rgb(204, 204, 204)" fill-opacity="0.25" points="21.000,15.000 31.000,15.000 31.000,13.000 21.000,13.000 " />
<polygon stroke="black" stroke-width="1" fill="rgb(204, 204, 204)" fill-opacity="0.25" points="21.000,19.000 31.000,19.000 31.000,18.000 21.000,18.000 " />
<polygon stroke="black" stroke-width="1" fill="rgb(204, 204, 204)" fill-opacity="0.25" points="21.000,16.000 31.000,16.000 31.000,15.000 21.000,15.000 " />
<polygon stroke="black" stroke-width="1" fill="rgb(204, 204, 204)" fill-opacity="0.25" points="21.000,18.000 31.000,18.000 31.000,16.000 21.000,16.000 " />
<polygon stroke="black" stroke-width="1" fill="rgb(204, 204, 204)" fill-opacity="0.25" points="20.000,13.000 18.000,13.000 18.000,14.000 20.000,14.000 " />
<polygon stroke="black" stroke-width="1" fill="rgb(204, 204, 204)" fill-opacity="0.25" points="18.000,14.000 20.000,14.000 20.000,13.000 18.000,13.000 " />
<polygon stroke="black" stroke-width="1" fill="rgb(204, 204, 204)" fill-opacity="0.25" points="21.000,15.000 31.000,15.000 31.000,13.000 21.000,13.000 " />
<polygon stroke="black" stroke-width="1" fill="rgb(204, 204, 204)" fill-opacity="0.25" points="21.000,19.000 31.000,19.000 31.000,18.000 21.000,18.000 " />
<polygon stroke="black" stroke-width="1" fill="rgb(204, 204, 204)" fill-opacity="0.25" points="21.000,16.000 31.000,16.000 31.000,15.000 21.000,15.000 " />
<polygon stroke="black" stroke-width="1" fill="rgb(204, 204, 204)" fill-opacity="0.25" points="21.000,18.000 31.000,18.000 31.000,16.000 21.000,16.000 " />
<polygon stroke="black" stroke-width="1" fill="rgb(204, 204, 204)" fill-opacity="0.25" points="20.000,13.000 18.000,13.000 18.000,14.000 20.000,14.000 " />

</svg>
