<svg xmlns="http://www.w3.org/2000/svg" width="32" height="32" version="1.1" viewBox="0 0 32 32"><desc>rail.blend, (Blender 3.0.0)</desc><polygon fill="#CCC" fill-opacity=".25" stroke="#000" stroke-width="1" points="23 2 23 1 21 1 21 2"/><polygon fill="#CCC" fill-opacity=".25" stroke="#000" stroke-width="1" points="1 13 1 14 15 14 15 13"/><polygon fill="#CCC" fill-opacity=".25" stroke="#000" stroke-width="1" points="21 1 21 2 23 2 23 1"/><polygon fill="#CCC" fill-opacity=".25" stroke="#000" stroke-width="1" points="15 11 15 10 1 10 1 11"/><polygon fill="#CCC" fill-opacity=".25" stroke="#000" stroke-width="1" points="1 13 15 13 15 11 1 11"/><polygon fill="#CCC" fill-opacity=".25" stroke="#000" stroke-width="1" points="15 8 1 8 1 10 15 10"/><polygon fill="#CCC" fill-opacity=".25" stroke="#000" stroke-width="1" points="23 2 23 1 21 1 21 2"/><polygon fill="#CCC" fill-opacity=".25" stroke="#000" stroke-width="1" points="1 13 1 14 15 14 15 13"/><polygon fill="#CCC" fill-opacity=".25" stroke="#000" stroke-width="1" points="21 1 21 2 23 2 23 1"/><polygon fill="#CCC" fill-opacity=".25" stroke="#000" stroke-width="1" points="15 11 15 10 1 10 1 11"/><polygon fill="#CCC" fill-opacity=".25" stroke="#000" stroke-width="1" points="1 13 15 13 15 11 1 11"/><polygon fill="#CCC" fill-opacity=".25" stroke="#000" stroke-width="1" points="15 8 1 8 1 10 15 10"/><polygon fill="#CCC" fill-opacity=".25" stroke="#000" stroke-width="1" points="23 2 23 1 21 1 21 2"/><polygon fill="#CCC" fill-opacity=".25" stroke="#000" stroke-width="1" points="1 13 1 14 15 14 15 13"/><polygon fill="#CCC" fill-opacity=".25" stroke="#000" stroke-width="1" points="21 1 21 2 23 2 23 1"/><polygon fill="#CCC" fill-opacity=".25" stroke="#000" stroke-width="1" points="15 11 15 10 1 10 1 11"/><polygon fill="#CCC" fill-opacity=".25" stroke="#000" stroke-width="1" points="1 13 15 13 15 11 1 11"/><polygon fill="#CCC" fill-opacity=".25" stroke="#000" stroke-width="1" points="15 8 1 8 1 10 15 10"/><polygon fill="#CCC" fill-opacity=".25" stroke="#000" stroke-width="1" points="23 2 23 1 21 1 21 2"/><polygon fill="#CCC" fill-opacity=".25" stroke="#000" stroke-width="1" points="1 13 1 14 15 14 15 13"/><polygon fill="#CCC" fill-opacity=".25" stroke="#000" stroke-width="1" points="21 1 21 2 23 2 23 1"/><polygon fill="#CCC" fill-opacity=".25" stroke="#000" stroke-width="1" points="15 11 15 10 1 10 1 11"/><polygon fill="#CCC" fill-opacity=".25" stroke="#000" stroke-width="1" points="1 13 15 13 15 11 1 11"/><polygon fill="#CCC" fill-opacity=".25" stroke="#000" stroke-width="1" points="15 8 1 8 1 10 15 10"/><polygon fill="#CCC" fill-opacity=".25" stroke="#000" stroke-width="1" points="17 4 17 3 1 3 1 4"/><polygon fill="#CCC" fill-opacity=".25" stroke="#000" stroke-width="1" points="18 1 18 2 20 2 20 1"/><polygon fill="#CCC" fill-opacity=".25" stroke="#000" stroke-width="1" points="1 6 1 7 17 7 17 6"/><polygon fill="#CCC" fill-opacity=".25" stroke="#000" stroke-width="1" points="18 2 18 3 20 3 20 2"/><polygon fill="#CCC" fill-opacity=".25" stroke="#000" stroke-width="1" points="1 4 1 6 17 6 17 4"/><polygon fill="#CCC" fill-opacity=".25" stroke="#000" stroke-width="1" points="1 1 1 3 17 3 17 1"/><polygon fill="#CCC" fill-opacity=".25" stroke="#000" stroke-width="1" points="5 28 1 28 1 30 5 30"/><polygon fill="#CCC" fill-opacity=".25" stroke="#000" stroke-width="1" points="17 4 17 3 1 3 1 4"/><polygon fill="#CCC" fill-opacity=".25" stroke="#000" stroke-width="1" points="18 1 18 2 20 2 20 1"/><polygon fill="#CCC" fill-opacity=".25" stroke="#000" stroke-width="1" points="1 6 1 7 17 7 17 6"/><polygon fill="#CCC" fill-opacity=".25" stroke="#000" stroke-width="1" points="18 2 18 3 20 3 20 2"/><polygon fill="#CCC" fill-opacity=".25" stroke="#000" stroke-width="1" points="1 4 1 6 17 6 17 4"/><polygon fill="#CCC" fill-opacity=".25" stroke="#000" stroke-width="1" points="1 1 1 3 17 3 17 1"/><polygon fill="#CCC" fill-opacity=".25" stroke="#000" stroke-width="1" points="1 21 1 25 15 25 15 21"/><polygon fill="#CCC" fill-opacity=".25" stroke="#000" stroke-width="1" points="1 30 5 30 5 28 1 28"/><polygon fill="#CCC" fill-opacity=".25" stroke="#000" stroke-width="1" points="15 19 15 15 1 15 1 19"/><polygon fill="#CCC" fill-opacity=".25" stroke="#000" stroke-width="1" points="1 21 15 21 15 19 1 19"/><polygon fill="#CCC" fill-opacity=".25" stroke="#000" stroke-width="1" points="15 25 1 25 1 27 15 27"/><polygon fill="#CCC" fill-opacity=".25" stroke="#000" stroke-width="1" points="27 31 29 31 29 30 27 30"/><polygon fill="#CCC" fill-opacity=".25" stroke="#000" stroke-width="1" points="20 31 22 31 22 29 20 29"/><polygon fill="#CCC" fill-opacity=".25" stroke="#000" stroke-width="1" points="27 30 25 30 25 31 27 31"/><polygon fill="#CCC" fill-opacity=".25" stroke="#000" stroke-width="1" points="29 31 31 31 31 30 29 30"/><polygon fill="#CCC" fill-opacity=".25" stroke="#000" stroke-width="1" points="22 31 22 29 20 29 20 31"/><polygon fill="#CCC" fill-opacity=".25" stroke="#000" stroke-width="1" points="23 31 25 31 25 30 23 30"/><polygon fill="#CCC" fill-opacity=".25" stroke="#000" stroke-width="1" points="22 31 22 29 20 29 20 31"/><polygon fill="#CCC" fill-opacity=".25" stroke="#000" stroke-width="1" points="23 31 25 31 25 30 23 30"/><polygon fill="#CCC" fill-opacity=".25" stroke="#000" stroke-width="1" points="29 31 31 31 31 30 29 30"/><polygon fill="#CCC" fill-opacity=".25" stroke="#000" stroke-width="1" points="27 30 25 30 25 31 27 31"/><polygon fill="#CCC" fill-opacity=".25" stroke="#000" stroke-width="1" points="20 31 22 31 22 29 20 29"/><polygon fill="#CCC" fill-opacity=".25" stroke="#000" stroke-width="1" points="27 31 29 31 29 30 27 30"/><polygon fill="#CCC" fill-opacity=".25" stroke="#000" stroke-width="1" points="31 3 31 1 29 1 29 3"/><polygon fill="#CCC" fill-opacity=".25" stroke="#000" stroke-width="1" points="31 4 18 4 18 6 31 6"/><polygon fill="#CCC" fill-opacity=".25" stroke="#000" stroke-width="1" points="31 6 18 6 18 8 31 8"/><polygon fill="#CCC" fill-opacity=".25" stroke="#000" stroke-width="1" points="31 10 18 10 18 12 31 12"/><polygon fill="#CCC" fill-opacity=".25" stroke="#000" stroke-width="1" points="31 8 18 8 18 10 31 10"/><polygon fill="#CCC" fill-opacity=".25" stroke="#000" stroke-width="1" points="31 1 29 1 29 3 31 3"/><polygon fill="#CCC" fill-opacity=".25" stroke="#000" stroke-width="1" points="31 1 29 1 29 3 31 3"/><polygon fill="#CCC" fill-opacity=".25" stroke="#000" stroke-width="1" points="31 8 18 8 18 10 31 10"/><polygon fill="#CCC" fill-opacity=".25" stroke="#000" stroke-width="1" points="31 10 18 10 18 12 31 12"/><polygon fill="#CCC" fill-opacity=".25" stroke="#000" stroke-width="1" points="31 6 18 6 18 8 31 8"/><polygon fill="#CCC" fill-opacity=".25" stroke="#000" stroke-width="1" points="31 4 18 4 18 6 31 6"/><polygon fill="#CCC" fill-opacity=".25" stroke="#000" stroke-width="1" points="31 3 31 1 29 1 29 3"/><polygon fill="#CCC" fill-opacity=".25" stroke="#000" stroke-width="1" points="20 15 17 15 17 16 20 16"/><polygon fill="#CCC" fill-opacity=".25" stroke="#000" stroke-width="1" points="32 21 16 21 16 23 32 23"/><polygon fill="#CCC" fill-opacity=".25" stroke="#000" stroke-width="1" points="32 23 16 23 16 25 32 25"/><polygon fill="#CCC" fill-opacity=".25" stroke="#000" stroke-width="1" points="32 20 16 20 16 21 32 21"/><polygon fill="#CCC" fill-opacity=".25" stroke="#000" stroke-width="1" points="32 25 16 25 16 27 32 27"/><polygon fill="#CCC" fill-opacity=".25" stroke="#000" stroke-width="1" points="17 16 20 16 20 15 17 15"/><polygon fill="#CCC" fill-opacity=".25" stroke="#000" stroke-width="1" points="17 16 20 16 20 15 17 15"/><polygon fill="#CCC" fill-opacity=".25" stroke="#000" stroke-width="1" points="32 25 16 25 16 27 32 27"/><polygon fill="#CCC" fill-opacity=".25" stroke="#000" stroke-width="1" points="32 20 16 20 16 21 32 21"/><polygon fill="#CCC" fill-opacity=".25" stroke="#000" stroke-width="1" points="32 23 16 23 16 25 32 25"/><polygon fill="#CCC" fill-opacity=".25" stroke="#000" stroke-width="1" points="32 21 16 21 16 23 32 23"/><polygon fill="#CCC" fill-opacity=".25" stroke="#000" stroke-width="1" points="20 15 17 15 17 16 20 16"/><polygon fill="#CCC" fill-opacity=".25" stroke="#000" stroke-width="1" points="18 14 20 14 20 13 18 13"/><polygon fill="#CCC" fill-opacity=".25" stroke="#000" stroke-width="1" points="21 15 31 15 31 13 21 13"/><polygon fill="#CCC" fill-opacity=".25" stroke="#000" stroke-width="1" points="21 19 31 19 31 18 21 18"/><polygon fill="#CCC" fill-opacity=".25" stroke="#000" stroke-width="1" points="21 16 31 16 31 15 21 15"/><polygon fill="#CCC" fill-opacity=".25" stroke="#000" stroke-width="1" points="21 18 31 18 31 16 21 16"/><polygon fill="#CCC" fill-opacity=".25" stroke="#000" stroke-width="1" points="20 13 18 13 18 14 20 14"/><polygon fill="#CCC" fill-opacity=".25" stroke="#000" stroke-width="1" points="18 14 20 14 20 13 18 13"/><polygon fill="#CCC" fill-opacity=".25" stroke="#000" stroke-width="1" points="21 15 31 15 31 13 21 13"/><polygon fill="#CCC" fill-opacity=".25" stroke="#000" stroke-width="1" points="21 19 31 19 31 18 21 18"/><polygon fill="#CCC" fill-opacity=".25" stroke="#000" stroke-width="1" points="21 16 31 16 31 15 21 15"/><polygon fill="#CCC" fill-opacity=".25" stroke="#000" stroke-width="1" points="21 18 31 18 31 16 21 16"/><polygon fill="#CCC" fill-opacity=".25" stroke="#000" stroke-width="1" points="20 13 18 13 18 14 20 14"/></svg>