<?xml version="1.0" standalone="no"?>
<!DOCTYPE svg PUBLIC "-//W3C//DTD SVG 1.1//EN" 
  "http://www.w3.org/Graphics/SVG/1.1/DTD/svg11.dtd">
<svg width="64" height="64" viewBox="0 0 64 64"
     xmlns="http://www.w3.org/2000/svg" version="1.1">
<desc>rail.blend, (Blender 3.0.0)</desc>
<polygon stroke="black" stroke-width="1" fill="rgb(204, 204, 204)" fill-opacity="0.25" points="42.000,43.000 42.000,46.000 43.000,46.000 43.000,43.000 " />
<polygon stroke="black" stroke-width="1" fill="rgb(204, 204, 204)" fill-opacity="0.25" points="42.000,34.000 42.000,31.000 26.000,31.000 26.000,34.000 " />
<polygon stroke="black" stroke-width="1" fill="rgb(204, 204, 204)" fill-opacity="0.25" points="43.000,21.000 43.000,18.000 42.000,18.000 42.000,21.000 " />
<polygon stroke="black" stroke-width="1" fill="rgb(204, 204, 204)" fill-opacity="0.25" points="4.000,49.000 4.000,65.000 10.000,65.000 10.000,49.000 " />
<polygon stroke="black" stroke-width="1" fill="rgb(204, 204, 204)" fill-opacity="0.25" points="43.000,40.000 43.000,24.000 42.000,24.000 42.000,40.000 " />
<polygon stroke="black" stroke-width="1" fill="rgb(204, 204, 204)" fill-opacity="0.25" points="43.000,18.000 43.000,2.000 42.000,2.000 42.000,18.000 " />
<polygon stroke="black" stroke-width="1" fill="rgb(204, 204, 204)" fill-opacity="0.25" points="4.000,19.000 1.000,19.000 1.000,20.000 4.000,20.000 " />
<polygon stroke="black" stroke-width="1" fill="rgb(204, 204, 204)" fill-opacity="0.25" points="5.000,18.000 5.000,15.000 1.000,15.000 1.000,18.000 " />
<polygon stroke="black" stroke-width="1" fill="rgb(204, 204, 204)" fill-opacity="0.25" points="8.000,20.000 11.000,20.000 11.000,19.000 8.000,19.000 " />
<polygon stroke="black" stroke-width="1" fill="rgb(204, 204, 204)" fill-opacity="0.25" points="1.000,15.000 1.000,18.000 5.000,18.000 5.000,15.000 " />
<polygon stroke="black" stroke-width="1" fill="rgb(204, 204, 204)" fill-opacity="0.25" points="4.000,20.000 8.000,20.000 8.000,19.000 4.000,19.000 " />
<polygon stroke="black" stroke-width="1" fill="rgb(204, 204, 204)" fill-opacity="0.25" points="11.000,20.000 15.000,20.000 15.000,19.000 11.000,19.000 " />
<polygon stroke="black" stroke-width="1" fill="rgb(204, 204, 204)" fill-opacity="0.25" points="51.000,33.000 51.000,49.000 58.000,49.000 58.000,33.000 " />
<polygon stroke="black" stroke-width="1" fill="rgb(204, 204, 204)" fill-opacity="0.25" points="58.000,18.000 58.000,32.000 63.000,32.000 63.000,18.000 " />
<polygon stroke="black" stroke-width="1" fill="rgb(204, 204, 204)" fill-opacity="0.25" points="23.000,63.000 23.000,60.000 15.000,60.000 15.000,63.000 " />
<polygon stroke="black" stroke-width="1" fill="rgb(204, 204, 204)" fill-opacity="0.25" points="41.000,54.000 41.000,38.000 35.000,38.000 35.000,54.000 " />
<polygon stroke="black" stroke-width="1" fill="rgb(204, 204, 204)" fill-opacity="0.25" points="16.000,25.000 13.000,25.000 13.000,26.000 16.000,26.000 " />
<polygon stroke="black" stroke-width="1" fill="rgb(204, 204, 204)" fill-opacity="0.25" points="25.000,26.000 31.000,26.000 31.000,25.000 25.000,25.000 " />
<polygon stroke="black" stroke-width="1" fill="rgb(204, 204, 204)" fill-opacity="0.25" points="10.000,22.000 10.000,19.000 4.000,19.000 4.000,22.000 " />
<polygon stroke="black" stroke-width="1" fill="rgb(204, 204, 204)" fill-opacity="0.25" points="13.000,25.000 7.000,25.000 7.000,26.000 13.000,26.000 " />
<polygon stroke="black" stroke-width="1" fill="rgb(204, 204, 204)" fill-opacity="0.25" points="4.000,25.000 1.000,25.000 1.000,26.000 4.000,26.000 " />
<polygon stroke="black" stroke-width="1" fill="rgb(204, 204, 204)" fill-opacity="0.25" points="25.000,25.000 19.000,25.000 19.000,26.000 25.000,26.000 " />
<polygon stroke="black" stroke-width="1" fill="rgb(204, 204, 204)" fill-opacity="0.25" points="10.000,22.000 10.000,19.000 4.000,19.000 4.000,22.000 " />
<polygon stroke="black" stroke-width="1" fill="rgb(204, 204, 204)" fill-opacity="0.25" points="16.000,26.000 19.000,26.000 19.000,25.000 16.000,25.000 " />
<polygon stroke="black" stroke-width="1" fill="rgb(204, 204, 204)" fill-opacity="0.25" points="4.000,26.000 7.000,26.000 7.000,25.000 4.000,25.000 " />
<polygon stroke="black" stroke-width="1" fill="rgb(204, 204, 204)" fill-opacity="0.25" points="7.000,26.000 13.000,26.000 13.000,25.000 7.000,25.000 " />
<polygon stroke="black" stroke-width="1" fill="rgb(204, 204, 204)" fill-opacity="0.25" points="1.000,26.000 4.000,26.000 4.000,25.000 1.000,25.000 " />
<polygon stroke="black" stroke-width="1" fill="rgb(204, 204, 204)" fill-opacity="0.25" points="13.000,26.000 16.000,26.000 16.000,25.000 13.000,25.000 " />
<polygon stroke="black" stroke-width="1" fill="rgb(204, 204, 204)" fill-opacity="0.25" points="10.000,25.000 10.000,22.000 4.000,22.000 4.000,25.000 " />
<polygon stroke="black" stroke-width="1" fill="rgb(204, 204, 204)" fill-opacity="0.25" points="7.000,25.000 4.000,25.000 4.000,26.000 7.000,26.000 " />
<polygon stroke="black" stroke-width="1" fill="rgb(204, 204, 204)" fill-opacity="0.25" points="10.000,25.000 10.000,22.000 4.000,22.000 4.000,25.000 " />
<polygon stroke="black" stroke-width="1" fill="rgb(204, 204, 204)" fill-opacity="0.25" points="19.000,25.000 16.000,25.000 16.000,26.000 19.000,26.000 " />
<polygon stroke="black" stroke-width="1" fill="rgb(204, 204, 204)" fill-opacity="0.25" points="35.000,38.000 32.000,38.000 32.000,54.000 35.000,54.000 " />
<polygon stroke="black" stroke-width="1" fill="rgb(204, 204, 204)" fill-opacity="0.25" points="43.000,24.000 43.000,21.000 42.000,21.000 42.000,24.000 " />
<polygon stroke="black" stroke-width="1" fill="rgb(204, 204, 204)" fill-opacity="0.25" points="42.000,37.000 42.000,34.000 26.000,34.000 26.000,37.000 " />
<polygon stroke="black" stroke-width="1" fill="rgb(204, 204, 204)" fill-opacity="0.25" points="42.000,40.000 42.000,43.000 43.000,43.000 43.000,40.000 " />
<polygon stroke="black" stroke-width="1" fill="rgb(204, 204, 204)" fill-opacity="0.25" points="39.000,63.000 39.000,60.000 23.000,60.000 23.000,63.000 " />
<polygon stroke="black" stroke-width="1" fill="rgb(204, 204, 204)" fill-opacity="0.25" points="24.000,39.000 24.000,23.000 16.000,23.000 16.000,39.000 " />
<polygon stroke="black" stroke-width="1" fill="rgb(204, 204, 204)" fill-opacity="0.25" points="10.000,49.000 10.000,65.000 18.000,65.000 18.000,49.000 " />
<polygon stroke="black" stroke-width="1" fill="rgb(204, 204, 204)" fill-opacity="0.25" points="23.000,63.000 23.000,60.000 15.000,60.000 15.000,63.000 " />
<polygon stroke="black" stroke-width="1" fill="rgb(204, 204, 204)" fill-opacity="0.25" points="41.000,13.000 41.000,10.000 33.000,10.000 33.000,13.000 " />
<polygon stroke="black" stroke-width="1" fill="rgb(204, 204, 204)" fill-opacity="0.25" points="26.000,1.000 26.000,4.000 32.000,4.000 32.000,1.000 " />
<polygon stroke="black" stroke-width="1" fill="rgb(204, 204, 204)" fill-opacity="0.25" points="33.000,1.000 33.000,4.000 41.000,4.000 41.000,1.000 " />
<polygon stroke="black" stroke-width="1" fill="rgb(204, 204, 204)" fill-opacity="0.25" points="26.000,1.000 26.000,4.000 32.000,4.000 32.000,1.000 " />
<polygon stroke="black" stroke-width="1" fill="rgb(204, 204, 204)" fill-opacity="0.25" points="33.000,13.000 33.000,19.000 41.000,19.000 41.000,13.000 " />
<polygon stroke="black" stroke-width="1" fill="rgb(204, 204, 204)" fill-opacity="0.25" points="33.000,4.000 33.000,10.000 41.000,10.000 41.000,4.000 " />
<polygon stroke="black" stroke-width="1" fill="rgb(204, 204, 204)" fill-opacity="0.25" points="13.000,54.000 1.000,54.000 1.000,56.000 13.000,56.000 " />
<polygon stroke="black" stroke-width="1" fill="rgb(204, 204, 204)" fill-opacity="0.25" points="13.000,56.000 1.000,56.000 1.000,58.000 13.000,58.000 " />
<polygon stroke="black" stroke-width="1" fill="rgb(204, 204, 204)" fill-opacity="0.25" points="13.000,42.000 1.000,42.000 1.000,44.000 13.000,44.000 " />
<polygon stroke="black" stroke-width="1" fill="rgb(204, 204, 204)" fill-opacity="0.25" points="13.000,44.000 1.000,44.000 1.000,46.000 13.000,46.000 " />
<polygon stroke="black" stroke-width="1" fill="rgb(204, 204, 204)" fill-opacity="0.25" points="13.000,46.000 1.000,46.000 1.000,48.000 13.000,48.000 " />
<polygon stroke="black" stroke-width="1" fill="rgb(204, 204, 204)" fill-opacity="0.25" points="13.000,48.000 1.000,48.000 1.000,50.000 13.000,50.000 " />
<polygon stroke="black" stroke-width="1" fill="rgb(204, 204, 204)" fill-opacity="0.25" points="4.000,41.000 5.000,40.000 5.000,38.000 4.000,37.000 2.000,37.000 1.000,38.000 1.000,40.000 2.000,41.000 " />
<polygon stroke="black" stroke-width="1" fill="rgb(204, 204, 204)" fill-opacity="0.25" points="13.000,50.000 1.000,50.000 1.000,52.000 13.000,52.000 " />
<polygon stroke="black" stroke-width="1" fill="rgb(204, 204, 204)" fill-opacity="0.25" points="13.000,52.000 1.000,52.000 1.000,54.000 13.000,54.000 " />
<polygon stroke="black" stroke-width="1" fill="rgb(204, 204, 204)" fill-opacity="0.25" points="4.000,41.000 5.000,40.000 5.000,38.000 4.000,37.000 2.000,37.000 1.000,38.000 1.000,40.000 2.000,41.000 " />
<polygon stroke="black" stroke-width="1" fill="rgb(204, 204, 204)" fill-opacity="0.25" points="63.000,63.000 63.000,58.000 47.000,58.000 47.000,63.000 " />
<polygon stroke="black" stroke-width="1" fill="rgb(204, 204, 204)" fill-opacity="0.25" points="15.000,52.000 29.000,52.000 29.000,36.000 15.000,36.000 " />
<polygon stroke="black" stroke-width="1" fill="rgb(204, 204, 204)" fill-opacity="0.25" points="29.000,65.000 29.000,49.000 15.000,49.000 15.000,65.000 " />
<polygon stroke="black" stroke-width="1" fill="rgb(204, 204, 204)" fill-opacity="0.25" points="63.000,32.000 63.000,18.000 58.000,18.000 58.000,32.000 " />
<polygon stroke="black" stroke-width="1" fill="rgb(204, 204, 204)" fill-opacity="0.25" points="47.000,58.000 63.000,58.000 63.000,52.000 47.000,52.000 " />
<polygon stroke="black" stroke-width="1" fill="rgb(204, 204, 204)" fill-opacity="0.25" points="58.000,32.000 58.000,18.000 52.000,19.000 52.000,32.000 " />
<polygon stroke="black" stroke-width="1" fill="rgb(204, 204, 204)" fill-opacity="0.25" points="58.000,18.000 58.000,32.000 52.000,32.000 52.000,19.000 " />
<polygon stroke="black" stroke-width="1" fill="rgb(204, 204, 204)" fill-opacity="0.25" points="50.000,17.000 63.000,17.000 63.000,1.000 50.000,1.000 " />
<polygon stroke="black" stroke-width="1" fill="rgb(204, 204, 204)" fill-opacity="0.25" points="58.000,33.000 58.000,49.000 63.000,49.000 63.000,33.000 " />

</svg>
