<svg xmlns="http://www.w3.org/2000/svg" width="64" height="64" version="1.1" viewBox="0 0 64 64"><desc>rail.blend, (Blender 3.0.0)</desc><polygon fill="#CCC" fill-opacity=".25" stroke="#000" stroke-width="1" points="42 43 42 46 43 46 43 43"/><polygon fill="#CCC" fill-opacity=".25" stroke="#000" stroke-width="1" points="42 34 42 31 26 31 26 34"/><polygon fill="#CCC" fill-opacity=".25" stroke="#000" stroke-width="1" points="43 21 43 18 42 18 42 21"/><polygon fill="#CCC" fill-opacity=".25" stroke="#000" stroke-width="1" points="4 49 4 65 10 65 10 49"/><polygon fill="#CCC" fill-opacity=".25" stroke="#000" stroke-width="1" points="43 40 43 24 42 24 42 40"/><polygon fill="#CCC" fill-opacity=".25" stroke="#000" stroke-width="1" points="43 18 43 2 42 2 42 18"/><polygon fill="#CCC" fill-opacity=".25" stroke="#000" stroke-width="1" points="4 19 1 19 1 20 4 20"/><polygon fill="#CCC" fill-opacity=".25" stroke="#000" stroke-width="1" points="5 18 5 15 1 15 1 18"/><polygon fill="#CCC" fill-opacity=".25" stroke="#000" stroke-width="1" points="8 20 11 20 11 19 8 19"/><polygon fill="#CCC" fill-opacity=".25" stroke="#000" stroke-width="1" points="1 15 1 18 5 18 5 15"/><polygon fill="#CCC" fill-opacity=".25" stroke="#000" stroke-width="1" points="4 20 8 20 8 19 4 19"/><polygon fill="#CCC" fill-opacity=".25" stroke="#000" stroke-width="1" points="11 20 15 20 15 19 11 19"/><polygon fill="#CCC" fill-opacity=".25" stroke="#000" stroke-width="1" points="51 33 51 49 58 49 58 33"/><polygon fill="#CCC" fill-opacity=".25" stroke="#000" stroke-width="1" points="58 18 58 32 63 32 63 18"/><polygon fill="#CCC" fill-opacity=".25" stroke="#000" stroke-width="1" points="23 63 23 60 15 60 15 63"/><polygon fill="#CCC" fill-opacity=".25" stroke="#000" stroke-width="1" points="41 54 41 38 35 38 35 54"/><polygon fill="#CCC" fill-opacity=".25" stroke="#000" stroke-width="1" points="16 25 13 25 13 26 16 26"/><polygon fill="#CCC" fill-opacity=".25" stroke="#000" stroke-width="1" points="25 26 31 26 31 25 25 25"/><polygon fill="#CCC" fill-opacity=".25" stroke="#000" stroke-width="1" points="10 22 10 19 4 19 4 22"/><polygon fill="#CCC" fill-opacity=".25" stroke="#000" stroke-width="1" points="13 25 7 25 7 26 13 26"/><polygon fill="#CCC" fill-opacity=".25" stroke="#000" stroke-width="1" points="4 25 1 25 1 26 4 26"/><polygon fill="#CCC" fill-opacity=".25" stroke="#000" stroke-width="1" points="25 25 19 25 19 26 25 26"/><polygon fill="#CCC" fill-opacity=".25" stroke="#000" stroke-width="1" points="10 22 10 19 4 19 4 22"/><polygon fill="#CCC" fill-opacity=".25" stroke="#000" stroke-width="1" points="16 26 19 26 19 25 16 25"/><polygon fill="#CCC" fill-opacity=".25" stroke="#000" stroke-width="1" points="4 26 7 26 7 25 4 25"/><polygon fill="#CCC" fill-opacity=".25" stroke="#000" stroke-width="1" points="7 26 13 26 13 25 7 25"/><polygon fill="#CCC" fill-opacity=".25" stroke="#000" stroke-width="1" points="1 26 4 26 4 25 1 25"/><polygon fill="#CCC" fill-opacity=".25" stroke="#000" stroke-width="1" points="13 26 16 26 16 25 13 25"/><polygon fill="#CCC" fill-opacity=".25" stroke="#000" stroke-width="1" points="10 25 10 22 4 22 4 25"/><polygon fill="#CCC" fill-opacity=".25" stroke="#000" stroke-width="1" points="7 25 4 25 4 26 7 26"/><polygon fill="#CCC" fill-opacity=".25" stroke="#000" stroke-width="1" points="10 25 10 22 4 22 4 25"/><polygon fill="#CCC" fill-opacity=".25" stroke="#000" stroke-width="1" points="19 25 16 25 16 26 19 26"/><polygon fill="#CCC" fill-opacity=".25" stroke="#000" stroke-width="1" points="35 38 32 38 32 54 35 54"/><polygon fill="#CCC" fill-opacity=".25" stroke="#000" stroke-width="1" points="43 24 43 21 42 21 42 24"/><polygon fill="#CCC" fill-opacity=".25" stroke="#000" stroke-width="1" points="42 37 42 34 26 34 26 37"/><polygon fill="#CCC" fill-opacity=".25" stroke="#000" stroke-width="1" points="42 40 42 43 43 43 43 40"/><polygon fill="#CCC" fill-opacity=".25" stroke="#000" stroke-width="1" points="39 63 39 60 23 60 23 63"/><polygon fill="#CCC" fill-opacity=".25" stroke="#000" stroke-width="1" points="24 39 24 23 16 23 16 39"/><polygon fill="#CCC" fill-opacity=".25" stroke="#000" stroke-width="1" points="10 49 10 65 18 65 18 49"/><polygon fill="#CCC" fill-opacity=".25" stroke="#000" stroke-width="1" points="23 63 23 60 15 60 15 63"/><polygon fill="#CCC" fill-opacity=".25" stroke="#000" stroke-width="1" points="41 13 41 10 33 10 33 13"/><polygon fill="#CCC" fill-opacity=".25" stroke="#000" stroke-width="1" points="26 1 26 4 32 4 32 1"/><polygon fill="#CCC" fill-opacity=".25" stroke="#000" stroke-width="1" points="33 1 33 4 41 4 41 1"/><polygon fill="#CCC" fill-opacity=".25" stroke="#000" stroke-width="1" points="26 1 26 4 32 4 32 1"/><polygon fill="#CCC" fill-opacity=".25" stroke="#000" stroke-width="1" points="33 13 33 19 41 19 41 13"/><polygon fill="#CCC" fill-opacity=".25" stroke="#000" stroke-width="1" points="33 4 33 10 41 10 41 4"/><polygon fill="#CCC" fill-opacity=".25" stroke="#000" stroke-width="1" points="13 54 1 54 1 56 13 56"/><polygon fill="#CCC" fill-opacity=".25" stroke="#000" stroke-width="1" points="13 56 1 56 1 58 13 58"/><polygon fill="#CCC" fill-opacity=".25" stroke="#000" stroke-width="1" points="13 42 1 42 1 44 13 44"/><polygon fill="#CCC" fill-opacity=".25" stroke="#000" stroke-width="1" points="13 44 1 44 1 46 13 46"/><polygon fill="#CCC" fill-opacity=".25" stroke="#000" stroke-width="1" points="13 46 1 46 1 48 13 48"/><polygon fill="#CCC" fill-opacity=".25" stroke="#000" stroke-width="1" points="13 48 1 48 1 50 13 50"/><polygon fill="#CCC" fill-opacity=".25" stroke="#000" stroke-width="1" points="4 41 5 40 5 38 4 37 2 37 1 38 1 40 2 41"/><polygon fill="#CCC" fill-opacity=".25" stroke="#000" stroke-width="1" points="13 50 1 50 1 52 13 52"/><polygon fill="#CCC" fill-opacity=".25" stroke="#000" stroke-width="1" points="13 52 1 52 1 54 13 54"/><polygon fill="#CCC" fill-opacity=".25" stroke="#000" stroke-width="1" points="4 41 5 40 5 38 4 37 2 37 1 38 1 40 2 41"/><polygon fill="#CCC" fill-opacity=".25" stroke="#000" stroke-width="1" points="63 63 63 58 47 58 47 63"/><polygon fill="#CCC" fill-opacity=".25" stroke="#000" stroke-width="1" points="15 52 29 52 29 36 15 36"/><polygon fill="#CCC" fill-opacity=".25" stroke="#000" stroke-width="1" points="29 65 29 49 15 49 15 65"/><polygon fill="#CCC" fill-opacity=".25" stroke="#000" stroke-width="1" points="63 32 63 18 58 18 58 32"/><polygon fill="#CCC" fill-opacity=".25" stroke="#000" stroke-width="1" points="47 58 63 58 63 52 47 52"/><polygon fill="#CCC" fill-opacity=".25" stroke="#000" stroke-width="1" points="58 32 58 18 52 19 52 32"/><polygon fill="#CCC" fill-opacity=".25" stroke="#000" stroke-width="1" points="58 18 58 32 52 32 52 19"/><polygon fill="#CCC" fill-opacity=".25" stroke="#000" stroke-width="1" points="50 17 63 17 63 1 50 1"/><polygon fill="#CCC" fill-opacity=".25" stroke="#000" stroke-width="1" points="58 33 58 49 63 49 63 33"/></svg>