<svg xmlns="http://www.w3.org/2000/svg" width="64" height="64" version="1.1" viewBox="0 0 64 64"><desc>rail.blend, (Blender 3.0.0)</desc><polygon fill="#CCC" fill-opacity=".25" stroke="#000" stroke-width="1" points="23 2 23 1 21 1 21 2"/><polygon fill="#CCC" fill-opacity=".25" stroke="#000" stroke-width="1" points="1 13 1 14 15 14 15 13"/><polygon fill="#CCC" fill-opacity=".25" stroke="#000" stroke-width="1" points="21 1 21 2 23 2 23 1"/><polygon fill="#CCC" fill-opacity=".25" stroke="#000" stroke-width="1" points="15 11 15 10 1 10 1 11"/><polygon fill="#CCC" fill-opacity=".25" stroke="#000" stroke-width="1" points="1 13 15 13 15 11 1 11"/><polygon fill="#CCC" fill-opacity=".25" stroke="#000" stroke-width="1" points="15 8 1 8 1 10 15 10"/><polygon fill="#CCC" fill-opacity=".25" stroke="#000" stroke-width="1" points="23 2 23 1 21 1 21 2"/><polygon fill="#CCC" fill-opacity=".25" stroke="#000" stroke-width="1" points="1 13 1 14 15 14 15 13"/><polygon fill="#CCC" fill-opacity=".25" stroke="#000" stroke-width="1" points="21 1 21 2 23 2 23 1"/><polygon fill="#CCC" fill-opacity=".25" stroke="#000" stroke-width="1" points="15 11 15 10 1 10 1 11"/><polygon fill="#CCC" fill-opacity=".25" stroke="#000" stroke-width="1" points="1 13 15 13 15 11 1 11"/><polygon fill="#CCC" fill-opacity=".25" stroke="#000" stroke-width="1" points="15 8 1 8 1 10 15 10"/><polygon fill="#CCC" fill-opacity=".25" stroke="#000" stroke-width="1" points="23 2 23 1 21 1 21 2"/><polygon fill="#CCC" fill-opacity=".25" stroke="#000" stroke-width="1" points="1 13 1 14 15 14 15 13"/><polygon fill="#CCC" fill-opacity=".25" stroke="#000" stroke-width="1" points="21 1 21 2 23 2 23 1"/><polygon fill="#CCC" fill-opacity=".25" stroke="#000" stroke-width="1" points="15 11 15 10 1 10 1 11"/><polygon fill="#CCC" fill-opacity=".25" stroke="#000" stroke-width="1" points="1 13 15 13 15 11 1 11"/><polygon fill="#CCC" fill-opacity=".25" stroke="#000" stroke-width="1" points="15 8 1 8 1 10 15 10"/><polygon fill="#CCC" fill-opacity=".25" stroke="#000" stroke-width="1" points="23 2 23 1 21 1 21 2"/><polygon fill="#CCC" fill-opacity=".25" stroke="#000" stroke-width="1" points="1 13 1 14 15 14 15 13"/><polygon fill="#CCC" fill-opacity=".25" stroke="#000" stroke-width="1" points="21 1 21 2 23 2 23 1"/><polygon fill="#CCC" fill-opacity=".25" stroke="#000" stroke-width="1" points="15 11 15 10 1 10 1 11"/><polygon fill="#CCC" fill-opacity=".25" stroke="#000" stroke-width="1" points="1 13 15 13 15 11 1 11"/><polygon fill="#CCC" fill-opacity=".25" stroke="#000" stroke-width="1" points="15 8 1 8 1 10 15 10"/><polygon fill="#CCC" fill-opacity=".25" stroke="#000" stroke-width="1" points="17 4 17 3 1 3 1 4"/><polygon fill="#CCC" fill-opacity=".25" stroke="#000" stroke-width="1" points="18 1 18 2 20 2 20 1"/><polygon fill="#CCC" fill-opacity=".25" stroke="#000" stroke-width="1" points="1 6 1 7 17 7 17 6"/><polygon fill="#CCC" fill-opacity=".25" stroke="#000" stroke-width="1" points="18 2 18 3 20 3 20 2"/><polygon fill="#CCC" fill-opacity=".25" stroke="#000" stroke-width="1" points="1 4 1 6 17 6 17 4"/><polygon fill="#CCC" fill-opacity=".25" stroke="#000" stroke-width="1" points="1 1 1 3 17 3 17 1"/><polygon fill="#CCC" fill-opacity=".25" stroke="#000" stroke-width="1" points="17 4 17 3 1 3 1 4"/><polygon fill="#CCC" fill-opacity=".25" stroke="#000" stroke-width="1" points="18 1 18 2 20 2 20 1"/><polygon fill="#CCC" fill-opacity=".25" stroke="#000" stroke-width="1" points="1 6 1 7 17 7 17 6"/><polygon fill="#CCC" fill-opacity=".25" stroke="#000" stroke-width="1" points="18 2 18 3 20 3 20 2"/><polygon fill="#CCC" fill-opacity=".25" stroke="#000" stroke-width="1" points="1 4 1 6 17 6 17 4"/><polygon fill="#CCC" fill-opacity=".25" stroke="#000" stroke-width="1" points="1 1 1 3 17 3 17 1"/><polygon fill="#CCC" fill-opacity=".25" stroke="#000" stroke-width="1" points="13 57 1 57 1 60 13 60"/><polygon fill="#CCC" fill-opacity=".25" stroke="#000" stroke-width="1" points="13 60 1 60 1 63 13 63"/><polygon fill="#CCC" fill-opacity=".25" stroke="#000" stroke-width="1" points="13 39 1 39 1 42 13 42"/><polygon fill="#CCC" fill-opacity=".25" stroke="#000" stroke-width="1" points="13 42 1 42 1 45 13 45"/><polygon fill="#CCC" fill-opacity=".25" stroke="#000" stroke-width="1" points="13 45 1 45 1 48 13 48"/><polygon fill="#CCC" fill-opacity=".25" stroke="#000" stroke-width="1" points="13 48 1 48 1 51 13 51"/><polygon fill="#CCC" fill-opacity=".25" stroke="#000" stroke-width="1" points="14 58 14 61 16 63 19 63 21 61 21 58 19 56 16 56"/><polygon fill="#CCC" fill-opacity=".25" stroke="#000" stroke-width="1" points="13 51 1 51 1 54 13 54"/><polygon fill="#CCC" fill-opacity=".25" stroke="#000" stroke-width="1" points="13 54 1 54 1 57 13 57"/><polygon fill="#CCC" fill-opacity=".25" stroke="#000" stroke-width="1" points="19 63 21 61 21 58 19 56 16 56 14 58 14 61 16 63"/><polygon fill="#CCC" fill-opacity=".25" stroke="#000" stroke-width="1" points="55 15 55 1 63 3 63 15"/><polygon fill="#CCC" fill-opacity=".25" stroke="#000" stroke-width="1" points="63 48 63 36 47 36 47 48"/><polygon fill="#CCC" fill-opacity=".25" stroke="#000" stroke-width="1" points="55 15 55 1 47 1 47 15"/><polygon fill="#CCC" fill-opacity=".25" stroke="#000" stroke-width="1" points="47 49 47 63 63 63 63 49"/><polygon fill="#CCC" fill-opacity=".25" stroke="#000" stroke-width="1" points="5 37 3 37 3 38 5 38"/><polygon fill="#CCC" fill-opacity=".25" stroke="#000" stroke-width="1" points="30 9 46 9 46 1 30 1"/><polygon fill="#CCC" fill-opacity=".25" stroke="#000" stroke-width="1" points="30 51 30 54 46 54 46 51"/><polygon fill="#CCC" fill-opacity=".25" stroke="#000" stroke-width="1" points="23 60 23 63 29 63 29 60"/><polygon fill="#CCC" fill-opacity=".25" stroke="#000" stroke-width="1" points="46 63 46 60 30 60 30 63"/><polygon fill="#CCC" fill-opacity=".25" stroke="#000" stroke-width="1" points="23 56 23 59 29 59 29 56"/><polygon fill="#CCC" fill-opacity=".25" stroke="#000" stroke-width="1" points="46 51 46 45 30 45 30 51"/><polygon fill="#CCC" fill-opacity=".25" stroke="#000" stroke-width="1" points="46 60 46 54 30 54 30 60"/><polygon fill="#CCC" fill-opacity=".25" stroke="#000" stroke-width="1" points="30 17 46 17 46 9 30 9"/><polygon fill="#CCC" fill-opacity=".25" stroke="#000" stroke-width="1" points="17 15 1 15 1 23 17 23"/><polygon fill="#CCC" fill-opacity=".25" stroke="#000" stroke-width="1" points="63 15 63 3 55 1 55 15"/><polygon fill="#CCC" fill-opacity=".25" stroke="#000" stroke-width="1" points="47 15 47 1 55 1 55 15"/><polygon fill="#CCC" fill-opacity=".25" stroke="#000" stroke-width="1" points="22 29 5 29 5 37 22 37"/><polygon fill="#CCC" fill-opacity=".25" stroke="#000" stroke-width="1" points="63 25 61 25 61 26 63 26"/><polygon fill="#CCC" fill-opacity=".25" stroke="#000" stroke-width="1" points="47 26 49 26 49 25 47 25"/><polygon fill="#CCC" fill-opacity=".25" stroke="#000" stroke-width="1" points="22 27 5 27 5 29 22 29"/><polygon fill="#CCC" fill-opacity=".25" stroke="#000" stroke-width="1" points="39 26 47 26 47 25 39 25"/><polygon fill="#CCC" fill-opacity=".25" stroke="#000" stroke-width="1" points="46 36 44 36 44 44 46 44"/><polygon fill="#CCC" fill-opacity=".25" stroke="#000" stroke-width="1" points="42 37 26 37 26 38 42 38"/><polygon fill="#CCC" fill-opacity=".25" stroke="#000" stroke-width="1" points="61 25 59 25 59 26 61 26"/><polygon fill="#CCC" fill-opacity=".25" stroke="#000" stroke-width="1" points="63 50 63 48 47 48 47 50"/><polygon fill="#CCC" fill-opacity=".25" stroke="#000" stroke-width="1" points="46 36 44 36 44 44 46 44"/><polygon fill="#CCC" fill-opacity=".25" stroke="#000" stroke-width="1" points="49 24 49 16 47 16 47 24"/><polygon fill="#CCC" fill-opacity=".25" stroke="#000" stroke-width="1" points="49 24 51 24 51 16 49 16"/><polygon fill="#CCC" fill-opacity=".25" stroke="#000" stroke-width="1" points="61 26 63 26 63 25 61 25"/><polygon fill="#CCC" fill-opacity=".25" stroke="#000" stroke-width="1" points="59 26 61 26 61 25 59 25"/><polygon fill="#CCC" fill-opacity=".25" stroke="#000" stroke-width="1" points="51 26 59 26 59 25 51 25"/><polygon fill="#CCC" fill-opacity=".25" stroke="#000" stroke-width="1" points="49 26 51 26 51 25 49 25"/><polygon fill="#CCC" fill-opacity=".25" stroke="#000" stroke-width="1" points="49 16 49 24 51 24 51 16"/><polygon fill="#CCC" fill-opacity=".25" stroke="#000" stroke-width="1" points="49 16 47 16 47 24 49 24"/><polygon fill="#CCC" fill-opacity=".25" stroke="#000" stroke-width="1" points="47 25 39 25 39 26 47 26"/><polygon fill="#CCC" fill-opacity=".25" stroke="#000" stroke-width="1" points="51 25 49 25 49 26 51 26"/><polygon fill="#CCC" fill-opacity=".25" stroke="#000" stroke-width="1" points="59 25 51 25 51 26 59 26"/><polygon fill="#CCC" fill-opacity=".25" stroke="#000" stroke-width="1" points="49 25 47 25 47 26 49 26"/><polygon fill="#CCC" fill-opacity=".25" stroke="#000" stroke-width="1" points="63 33 47 33 47 35 63 35"/><polygon fill="#CCC" fill-opacity=".25" stroke="#000" stroke-width="1" points="63 33 63 31 47 31 47 33"/><polygon fill="#CCC" fill-opacity=".25" stroke="#000" stroke-width="1" points="22 37 5 37 5 38 22 38"/><polygon fill="#CCC" fill-opacity=".25" stroke="#000" stroke-width="1" points="3 37 1 37 1 38 3 38"/><polygon fill="#CCC" fill-opacity=".25" stroke="#000" stroke-width="1" points="26 37 24 37 24 38 26 38"/><polygon fill="#CCC" fill-opacity=".25" stroke="#000" stroke-width="1" points="24 37 22 37 22 38 24 38"/><polygon fill="#CCC" fill-opacity=".25" stroke="#000" stroke-width="1" points="31 36 35 36 35 35 31 35"/><polygon fill="#CCC" fill-opacity=".25" stroke="#000" stroke-width="1" points="23 34 27 34 27 30 23 30"/><polygon fill="#CCC" fill-opacity=".25" stroke="#000" stroke-width="1" points="27 35 23 35 23 36 27 36"/><polygon fill="#CCC" fill-opacity=".25" stroke="#000" stroke-width="1" points="27 30 23 30 23 34 27 34"/><polygon fill="#CCC" fill-opacity=".25" stroke="#000" stroke-width="1" points="31 35 27 35 27 36 31 36"/><polygon fill="#CCC" fill-opacity=".25" stroke="#000" stroke-width="1" points="39 35 35 35 35 36 39 36"/></svg>