<svg xmlns="http://www.w3.org/2000/svg" width="64" height="64" version="1.1" viewBox="0 0 64 64"><desc>rail.blend, (Blender 3.0.0)</desc><polygon fill="#CCC" fill-opacity=".25" stroke="#000" stroke-width="1" points="57 35 63 35 63 19 57 19"/><polygon fill="#CCC" fill-opacity=".25" stroke="#000" stroke-width="1" points="57 17 63 17 63 16 57 16"/><polygon fill="#CCC" fill-opacity=".25" stroke="#000" stroke-width="1" points="57 35 63 35 63 19 57 19"/><polygon fill="#CCC" fill-opacity=".25" stroke="#000" stroke-width="1" points="41 16 35 16 35 17 41 17"/><polygon fill="#CCC" fill-opacity=".25" stroke="#000" stroke-width="1" points="57 17 57 16 41 16 41 17"/><polygon fill="#CCC" fill-opacity=".25" stroke="#000" stroke-width="1" points="17 16 17 17 35 17 35 16"/><polygon fill="#CCC" fill-opacity=".25" stroke="#000" stroke-width="1" points="57 35 63 35 63 19 57 19"/><polygon fill="#CCC" fill-opacity=".25" stroke="#000" stroke-width="1" points="57 17 63 17 63 16 57 16"/><polygon fill="#CCC" fill-opacity=".25" stroke="#000" stroke-width="1" points="57 35 63 35 63 19 57 19"/><polygon fill="#CCC" fill-opacity=".25" stroke="#000" stroke-width="1" points="41 16 35 16 35 17 41 17"/><polygon fill="#CCC" fill-opacity=".25" stroke="#000" stroke-width="1" points="57 17 57 16 41 16 41 17"/><polygon fill="#CCC" fill-opacity=".25" stroke="#000" stroke-width="1" points="17 16 17 17 35 17 35 16"/></svg>