<svg xmlns="http://www.w3.org/2000/svg" width="64" height="64" version="1.1" viewBox="0 0 64 64"><desc>rail.blend, (Blender 3.0.0)</desc><polygon fill="#CCC" fill-opacity=".25" stroke="#000" stroke-width="1" points="1 46 13 46 13 43 1 43"/><polygon fill="#CCC" fill-opacity=".25" stroke="#000" stroke-width="1" points="1 43 13 43 13 40 1 40"/><polygon fill="#CCC" fill-opacity=".25" stroke="#000" stroke-width="1" points="1 63 13 63 13 61 1 61"/><polygon fill="#CCC" fill-opacity=".25" stroke="#000" stroke-width="1" points="1 61 13 61 13 58 1 58"/><polygon fill="#CCC" fill-opacity=".25" stroke="#000" stroke-width="1" points="1 58 13 58 13 55 1 55"/><polygon fill="#CCC" fill-opacity=".25" stroke="#000" stroke-width="1" points="1 55 13 55 13 52 1 52"/><polygon fill="#CCC" fill-opacity=".25" stroke="#000" stroke-width="1" points="7 33 7 31 5 29 3 29 1 31 1 33 3 35 5 35"/><polygon fill="#CCC" fill-opacity=".25" stroke="#000" stroke-width="1" points="1 52 13 52 13 49 1 49"/><polygon fill="#CCC" fill-opacity=".25" stroke="#000" stroke-width="1" points="1 49 13 49 13 46 1 46"/><polygon fill="#CCC" fill-opacity=".25" stroke="#000" stroke-width="1" points="5 35 7 33 7 31 5 29 3 29 1 31 1 33 3 35"/></svg>