<svg xmlns="http://www.w3.org/2000/svg" width="64" height="64" version="1.1" viewBox="0 0 64 64"><desc>rail.blend, (Blender 3.0.0)</desc><polygon fill="#CCC" fill-opacity=".25" stroke="#000" stroke-width="1" points="23 2 23 1 21 1 21 2"/><polygon fill="#CCC" fill-opacity=".25" stroke="#000" stroke-width="1" points="1 13 1 14 15 14 15 13"/><polygon fill="#CCC" fill-opacity=".25" stroke="#000" stroke-width="1" points="21 1 21 2 23 2 23 1"/><polygon fill="#CCC" fill-opacity=".25" stroke="#000" stroke-width="1" points="15 11 15 10 1 10 1 11"/><polygon fill="#CCC" fill-opacity=".25" stroke="#000" stroke-width="1" points="1 13 15 13 15 11 1 11"/><polygon fill="#CCC" fill-opacity=".25" stroke="#000" stroke-width="1" points="15 8 1 8 1 10 15 10"/><polygon fill="#CCC" fill-opacity=".25" stroke="#000" stroke-width="1" points="23 2 23 1 21 1 21 2"/><polygon fill="#CCC" fill-opacity=".25" stroke="#000" stroke-width="1" points="1 13 1 14 15 14 15 13"/><polygon fill="#CCC" fill-opacity=".25" stroke="#000" stroke-width="1" points="21 1 21 2 23 2 23 1"/><polygon fill="#CCC" fill-opacity=".25" stroke="#000" stroke-width="1" points="15 11 15 10 1 10 1 11"/><polygon fill="#CCC" fill-opacity=".25" stroke="#000" stroke-width="1" points="1 13 15 13 15 11 1 11"/><polygon fill="#CCC" fill-opacity=".25" stroke="#000" stroke-width="1" points="15 8 1 8 1 10 15 10"/><polygon fill="#CCC" fill-opacity=".25" stroke="#000" stroke-width="1" points="23 2 23 1 21 1 21 2"/><polygon fill="#CCC" fill-opacity=".25" stroke="#000" stroke-width="1" points="1 13 1 14 15 14 15 13"/><polygon fill="#CCC" fill-opacity=".25" stroke="#000" stroke-width="1" points="21 1 21 2 23 2 23 1"/><polygon fill="#CCC" fill-opacity=".25" stroke="#000" stroke-width="1" points="15 11 15 10 1 10 1 11"/><polygon fill="#CCC" fill-opacity=".25" stroke="#000" stroke-width="1" points="1 13 15 13 15 11 1 11"/><polygon fill="#CCC" fill-opacity=".25" stroke="#000" stroke-width="1" points="15 8 1 8 1 10 15 10"/><polygon fill="#CCC" fill-opacity=".25" stroke="#000" stroke-width="1" points="23 2 23 1 21 1 21 2"/><polygon fill="#CCC" fill-opacity=".25" stroke="#000" stroke-width="1" points="1 13 1 14 15 14 15 13"/><polygon fill="#CCC" fill-opacity=".25" stroke="#000" stroke-width="1" points="21 1 21 2 23 2 23 1"/><polygon fill="#CCC" fill-opacity=".25" stroke="#000" stroke-width="1" points="15 11 15 10 1 10 1 11"/><polygon fill="#CCC" fill-opacity=".25" stroke="#000" stroke-width="1" points="1 13 15 13 15 11 1 11"/><polygon fill="#CCC" fill-opacity=".25" stroke="#000" stroke-width="1" points="15 8 1 8 1 10 15 10"/><polygon fill="#CCC" fill-opacity=".25" stroke="#000" stroke-width="1" points="17 4 17 3 1 3 1 4"/><polygon fill="#CCC" fill-opacity=".25" stroke="#000" stroke-width="1" points="18 1 18 2 20 2 20 1"/><polygon fill="#CCC" fill-opacity=".25" stroke="#000" stroke-width="1" points="1 6 1 7 17 7 17 6"/><polygon fill="#CCC" fill-opacity=".25" stroke="#000" stroke-width="1" points="18 2 18 3 20 3 20 2"/><polygon fill="#CCC" fill-opacity=".25" stroke="#000" stroke-width="1" points="1 4 1 6 17 6 17 4"/><polygon fill="#CCC" fill-opacity=".25" stroke="#000" stroke-width="1" points="1 1 1 3 17 3 17 1"/><polygon fill="#CCC" fill-opacity=".25" stroke="#000" stroke-width="1" points="17 4 17 3 1 3 1 4"/><polygon fill="#CCC" fill-opacity=".25" stroke="#000" stroke-width="1" points="18 1 18 2 20 2 20 1"/><polygon fill="#CCC" fill-opacity=".25" stroke="#000" stroke-width="1" points="1 6 1 7 17 7 17 6"/><polygon fill="#CCC" fill-opacity=".25" stroke="#000" stroke-width="1" points="18 2 18 3 20 3 20 2"/><polygon fill="#CCC" fill-opacity=".25" stroke="#000" stroke-width="1" points="1 4 1 6 17 6 17 4"/><polygon fill="#CCC" fill-opacity=".25" stroke="#000" stroke-width="1" points="1 1 1 3 17 3 17 1"/><polygon fill="#CCC" fill-opacity=".25" stroke="#000" stroke-width="1" points="63 15 63 1 47 1 47 15"/><polygon fill="#CCC" fill-opacity=".25" stroke="#000" stroke-width="1" points="40 15 40 1 24 1 24 15"/><polygon fill="#CCC" fill-opacity=".25" stroke="#000" stroke-width="1" points="47 1 47 15 63 15 63 1"/><polygon fill="#CCC" fill-opacity=".25" stroke="#000" stroke-width="1" points="24 1 24 15 40 15 40 1"/><polygon fill="#CCC" fill-opacity=".25" stroke="#000" stroke-width="1" points="1 30 1 46 17 46 17 30"/><polygon fill="#CCC" fill-opacity=".25" stroke="#000" stroke-width="1" points="1 47 1 63 17 63 17 47"/><polygon fill="#CCC" fill-opacity=".25" stroke="#000" stroke-width="1" points="18 45 18 48 34 48 34 45"/><polygon fill="#CCC" fill-opacity=".25" stroke="#000" stroke-width="1" points="36 57 36 60 42 60 42 57"/><polygon fill="#CCC" fill-opacity=".25" stroke="#000" stroke-width="1" points="34 57 34 54 18 54 18 57"/><polygon fill="#CCC" fill-opacity=".25" stroke="#000" stroke-width="1" points="36 60 36 63 42 63 42 60"/><polygon fill="#CCC" fill-opacity=".25" stroke="#000" stroke-width="1" points="34 63 34 57 18 57 18 63"/><polygon fill="#CCC" fill-opacity=".25" stroke="#000" stroke-width="1" points="34 54 34 48 18 48 18 54"/></svg>