<svg xmlns="http://www.w3.org/2000/svg" width="64" height="64" version="1.1" viewBox="0 0 64 64"><desc>rail.blend, (Blender 3.0.0)</desc><polygon fill="#CCC" fill-opacity=".25" stroke="#000" stroke-width="1" points="23 2 23 1 21 1 21 2"/><polygon fill="#CCC" fill-opacity=".25" stroke="#000" stroke-width="1" points="1 13 1 14 15 14 15 13"/><polygon fill="#CCC" fill-opacity=".25" stroke="#000" stroke-width="1" points="21 1 21 2 23 2 23 1"/><polygon fill="#CCC" fill-opacity=".25" stroke="#000" stroke-width="1" points="15 11 15 10 1 10 1 11"/><polygon fill="#CCC" fill-opacity=".25" stroke="#000" stroke-width="1" points="1 13 15 13 15 11 1 11"/><polygon fill="#CCC" fill-opacity=".25" stroke="#000" stroke-width="1" points="15 8 1 8 1 10 15 10"/><polygon fill="#CCC" fill-opacity=".25" stroke="#000" stroke-width="1" points="23 2 23 1 21 1 21 2"/><polygon fill="#CCC" fill-opacity=".25" stroke="#000" stroke-width="1" points="1 13 1 14 15 14 15 13"/><polygon fill="#CCC" fill-opacity=".25" stroke="#000" stroke-width="1" points="21 1 21 2 23 2 23 1"/><polygon fill="#CCC" fill-opacity=".25" stroke="#000" stroke-width="1" points="15 11 15 10 1 10 1 11"/><polygon fill="#CCC" fill-opacity=".25" stroke="#000" stroke-width="1" points="1 13 15 13 15 11 1 11"/><polygon fill="#CCC" fill-opacity=".25" stroke="#000" stroke-width="1" points="15 8 1 8 1 10 15 10"/><polygon fill="#CCC" fill-opacity=".25" stroke="#000" stroke-width="1" points="23 2 23 1 21 1 21 2"/><polygon fill="#CCC" fill-opacity=".25" stroke="#000" stroke-width="1" points="1 13 1 14 15 14 15 13"/><polygon fill="#CCC" fill-opacity=".25" stroke="#000" stroke-width="1" points="21 1 21 2 23 2 23 1"/><polygon fill="#CCC" fill-opacity=".25" stroke="#000" stroke-width="1" points="15 11 15 10 1 10 1 11"/><polygon fill="#CCC" fill-opacity=".25" stroke="#000" stroke-width="1" points="1 13 15 13 15 11 1 11"/><polygon fill="#CCC" fill-opacity=".25" stroke="#000" stroke-width="1" points="15 8 1 8 1 10 15 10"/><polygon fill="#CCC" fill-opacity=".25" stroke="#000" stroke-width="1" points="23 2 23 1 21 1 21 2"/><polygon fill="#CCC" fill-opacity=".25" stroke="#000" stroke-width="1" points="1 13 1 14 15 14 15 13"/><polygon fill="#CCC" fill-opacity=".25" stroke="#000" stroke-width="1" points="21 1 21 2 23 2 23 1"/><polygon fill="#CCC" fill-opacity=".25" stroke="#000" stroke-width="1" points="15 11 15 10 1 10 1 11"/><polygon fill="#CCC" fill-opacity=".25" stroke="#000" stroke-width="1" points="1 13 15 13 15 11 1 11"/><polygon fill="#CCC" fill-opacity=".25" stroke="#000" stroke-width="1" points="15 8 1 8 1 10 15 10"/><polygon fill="#CCC" fill-opacity=".25" stroke="#000" stroke-width="1" points="17 4 17 3 1 3 1 4"/><polygon fill="#CCC" fill-opacity=".25" stroke="#000" stroke-width="1" points="18 1 18 2 20 2 20 1"/><polygon fill="#CCC" fill-opacity=".25" stroke="#000" stroke-width="1" points="1 6 1 7 17 7 17 6"/><polygon fill="#CCC" fill-opacity=".25" stroke="#000" stroke-width="1" points="18 2 18 3 20 3 20 2"/><polygon fill="#CCC" fill-opacity=".25" stroke="#000" stroke-width="1" points="1 4 1 6 17 6 17 4"/><polygon fill="#CCC" fill-opacity=".25" stroke="#000" stroke-width="1" points="1 1 1 3 17 3 17 1"/><polygon fill="#CCC" fill-opacity=".25" stroke="#000" stroke-width="1" points="17 4 17 3 1 3 1 4"/><polygon fill="#CCC" fill-opacity=".25" stroke="#000" stroke-width="1" points="18 1 18 2 20 2 20 1"/><polygon fill="#CCC" fill-opacity=".25" stroke="#000" stroke-width="1" points="1 6 1 7 17 7 17 6"/><polygon fill="#CCC" fill-opacity=".25" stroke="#000" stroke-width="1" points="18 2 18 3 20 3 20 2"/><polygon fill="#CCC" fill-opacity=".25" stroke="#000" stroke-width="1" points="1 4 1 6 17 6 17 4"/><polygon fill="#CCC" fill-opacity=".25" stroke="#000" stroke-width="1" points="1 1 1 3 17 3 17 1"/><polygon fill="#CCC" fill-opacity=".25" stroke="#000" stroke-width="1" points="42 34 42 37 43 37 43 34"/><polygon fill="#CCC" fill-opacity=".25" stroke="#000" stroke-width="1" points="41.026 33.641 41.026 31.179 27.897 31.179 27.897 33.641"/><polygon fill="#CCC" fill-opacity=".25" stroke="#000" stroke-width="1" points="43 16 43 14 42 14 42 16"/><polygon fill="#CCC" fill-opacity=".25" stroke="#000" stroke-width="1" points="4.923 50.051 4.923 63.179 9.846 63.179 9.846 50.051"/><polygon fill="#CCC" fill-opacity=".25" stroke="#000" stroke-width="1" points="43 32 43 19 42 19 42 32"/><polygon fill="#CCC" fill-opacity=".25" stroke="#000" stroke-width="1" points="43 14 43 1 42 1 42 14"/><polygon fill="#CCC" fill-opacity=".25" stroke="#000" stroke-width="1" points="54 48 52 48 52 49 54 49"/><polygon fill="#CCC" fill-opacity=".25" stroke="#000" stroke-width="1" points="31 50 31 48 28 48 28 50"/><polygon fill="#CCC" fill-opacity=".25" stroke="#000" stroke-width="1" points="57 49 60 49 60 48 57 48"/><polygon fill="#CCC" fill-opacity=".25" stroke="#000" stroke-width="1" points="28 48 28 50 31 50 31 48"/><polygon fill="#CCC" fill-opacity=".25" stroke="#000" stroke-width="1" points="54 49 57 49 57 48 54 48"/><polygon fill="#CCC" fill-opacity=".25" stroke="#000" stroke-width="1" points="60 49 63 49 63 48 60 48"/><polygon fill="#CCC" fill-opacity=".25" stroke="#000" stroke-width="1" points="63 1 50 1 50 6 63 6"/><polygon fill="#CCC" fill-opacity=".25" stroke="#000" stroke-width="1" points="59 35 59 46 63 46 63 35"/><polygon fill="#CCC" fill-opacity=".25" stroke="#000" stroke-width="1" points="44.308 50.872 41.846 50.872 41.846 57.436 44.308 57.436"/><polygon fill="#CCC" fill-opacity=".25" stroke="#000" stroke-width="1" points="49 15 49 2 44 2 44 15"/><polygon fill="#CCC" fill-opacity=".25" stroke="#000" stroke-width="1" points="12.308 63.179 9.846 63.179 9.846 64 12.308 64"/><polygon fill="#CCC" fill-opacity=".25" stroke="#000" stroke-width="1" points="44 2 49 2 49 1 44 1"/><polygon fill="#CCC" fill-opacity=".25" stroke="#000" stroke-width="1" points="63 31 63 28 58 28 58 31"/><polygon fill="#CCC" fill-opacity=".25" stroke="#000" stroke-width="1" points="9.846 63.179 4.923 63.179 4.923 64 9.846 64"/><polygon fill="#CCC" fill-opacity=".25" stroke="#000" stroke-width="1" points="2.462 63.179 0 63.179 0 64 2.462 64"/><polygon fill="#CCC" fill-opacity=".25" stroke="#000" stroke-width="1" points="49 15 44 15 44 16 49 16"/><polygon fill="#CCC" fill-opacity=".25" stroke="#000" stroke-width="1" points="58 31 58 28 53 28 53 31"/><polygon fill="#CCC" fill-opacity=".25" stroke="#000" stroke-width="1" points="12.308 50.051 14.769 50.051 14.769 49.231 12.308 49.231"/><polygon fill="#CCC" fill-opacity=".25" stroke="#000" stroke-width="1" points="2.462 50.051 4.923 50.051 4.923 49.231 2.462 49.231"/><polygon fill="#CCC" fill-opacity=".25" stroke="#000" stroke-width="1" points="4.923 50.051 9.846 50.051 9.846 49.231 4.923 49.231"/><polygon fill="#CCC" fill-opacity=".25" stroke="#000" stroke-width="1" points="0 50.051 2.462 50.051 2.462 49.231 0 49.231"/><polygon fill="#CCC" fill-opacity=".25" stroke="#000" stroke-width="1" points="9.846 50.051 12.308 50.051 12.308 49.231 9.846 49.231"/><polygon fill="#CCC" fill-opacity=".25" stroke="#000" stroke-width="1" points="58 34 58 31 53 31 53 34"/><polygon fill="#CCC" fill-opacity=".25" stroke="#000" stroke-width="1" points="4.923 63.179 2.462 63.179 2.462 64 4.923 64"/><polygon fill="#CCC" fill-opacity=".25" stroke="#000" stroke-width="1" points="63 34 63 31 58 31 58 34"/><polygon fill="#CCC" fill-opacity=".25" stroke="#000" stroke-width="1" points="14.769 63.179 12.308 63.179 12.308 64 14.769 64"/><polygon fill="#CCC" fill-opacity=".25" stroke="#000" stroke-width="1" points="27.897 24.615 27.897 27.077 41.026 27.077 41.026 24.615"/><polygon fill="#CCC" fill-opacity=".25" stroke="#000" stroke-width="1" points="43 19 43 16 42 16 42 19"/><polygon fill="#CCC" fill-opacity=".25" stroke="#000" stroke-width="1" points="41.026 36.103 41.026 33.641 27.897 33.641 27.897 36.103"/><polygon fill="#CCC" fill-opacity=".25" stroke="#000" stroke-width="1" points="42 32 42 34 43 34 43 32"/><polygon fill="#CCC" fill-opacity=".25" stroke="#000" stroke-width="1" points="49 17 47 17 47 30 49 30"/><polygon fill="#CCC" fill-opacity=".25" stroke="#000" stroke-width="1" points="49 64 49 51 42 51 42 64"/><polygon fill="#CCC" fill-opacity=".25" stroke="#000" stroke-width="1" points="9.846 50.051 9.846 63.179 16.41 63.179 16.41 50.051"/><polygon fill="#CCC" fill-opacity=".25" stroke="#000" stroke-width="1" points="44.308 57.436 41.846 57.436 41.846 64 44.308 64"/><polygon fill="#CCC" fill-opacity=".25" stroke="#000" stroke-width="1" points="34 11 34 9 28 9 28 11"/><polygon fill="#CCC" fill-opacity=".25" stroke="#000" stroke-width="1" points="23.688 24.615 26.149 24.615 26.149 19.692 23.688 19.692"/><polygon fill="#CCC" fill-opacity=".25" stroke="#000" stroke-width="1" points="28 2 28 4 34 4 34 2"/><polygon fill="#CCC" fill-opacity=".25" stroke="#000" stroke-width="1" points="27.897 22.154 27.897 24.615 32.82 24.615 32.82 22.154"/><polygon fill="#CCC" fill-opacity=".25" stroke="#000" stroke-width="1" points="28 11 28 16 34 16 34 11"/><polygon fill="#CCC" fill-opacity=".25" stroke="#000" stroke-width="1" points="28 4 28 9 34 9 34 4"/><polygon fill="#CCC" fill-opacity=".25" stroke="#000" stroke-width="1" points="37.744 60.986 27.897 60.986 27.897 62.493 37.744 62.493"/><polygon fill="#CCC" fill-opacity=".25" stroke="#000" stroke-width="1" points="37.744 62.493 27.897 62.493 27.897 64 37.744 64"/><polygon fill="#CCC" fill-opacity=".25" stroke="#000" stroke-width="1" points="37.744 51.943 27.897 51.943 27.897 53.45 37.744 53.45"/><polygon fill="#CCC" fill-opacity=".25" stroke="#000" stroke-width="1" points="37.744 53.45 27.897 53.45 27.897 54.957 37.744 54.957"/><polygon fill="#CCC" fill-opacity=".25" stroke="#000" stroke-width="1" points="37.744 54.957 27.897 54.957 27.897 56.464 37.744 56.464"/><polygon fill="#CCC" fill-opacity=".25" stroke="#000" stroke-width="1" points="37.744 56.464 27.897 56.464 27.897 57.971 37.744 57.971"/><polygon fill="#CCC" fill-opacity=".25" stroke="#000" stroke-width="1" points="25 63 26 62 26 61 25 60 24 60 23 61 23 62 24 63"/><polygon fill="#CCC" fill-opacity=".25" stroke="#000" stroke-width="1" points="37.744 57.971 27.897 57.971 27.897 59.478 37.744 59.478"/><polygon fill="#CCC" fill-opacity=".25" stroke="#000" stroke-width="1" points="37.744 59.478 27.897 59.478 27.897 60.986 37.744 60.986"/><polygon fill="#CCC" fill-opacity=".25" stroke="#000" stroke-width="1" points="25 63 26 62 26 61 25 60 24 60 23 61 23 62 24 63"/><polygon fill="#CCC" fill-opacity=".25" stroke="#000" stroke-width="1" points="16 48 16 43 0 43 0 48"/><polygon fill="#CCC" fill-opacity=".25" stroke="#000" stroke-width="1" points="50 26 61 26 61 13 50 13"/><polygon fill="#CCC" fill-opacity=".25" stroke="#000" stroke-width="1" points="27.897 64 27.897 50.872 16.41 50.872 16.41 64"/><polygon fill="#CCC" fill-opacity=".25" stroke="#000" stroke-width="1" points="63 46 63 35 59 35 59 46"/><polygon fill="#CCC" fill-opacity=".25" stroke="#000" stroke-width="1" points="0 43 16 43 16 37 0 37"/><polygon fill="#CCC" fill-opacity=".25" stroke="#000" stroke-width="1" points="59 46 59 35 54 36 54 46"/><polygon fill="#CCC" fill-opacity=".25" stroke="#000" stroke-width="1" points="59 35 59 46 54 46 54 36"/><polygon fill="#CCC" fill-opacity=".25" stroke="#000" stroke-width="1" points="50 52 50 63 63 63 63 52"/><polygon fill="#CCC" fill-opacity=".25" stroke="#000" stroke-width="1" points="50 10 63 10 63 6 50 6"/></svg>