<?xml version="1.0" standalone="no"?>
<!DOCTYPE svg PUBLIC "-//W3C//DTD SVG 1.1//EN" 
  "http://www.w3.org/Graphics/SVG/1.1/DTD/svg11.dtd">
<svg width="64" height="64" viewBox="0 0 64 64"
     xmlns="http://www.w3.org/2000/svg" version="1.1">
<desc>rail.blend, (Blender 3.0.0)</desc>
<polygon stroke="black" stroke-width="1" fill="rgb(204, 204, 204)" fill-opacity="0.25" points="23.000,2.000 23.000,1.000 21.000,1.000 21.000,2.000 " />
<polygon stroke="black" stroke-width="1" fill="rgb(204, 204, 204)" fill-opacity="0.25" points="1.000,13.000 1.000,14.000 15.000,14.000 15.000,13.000 " />
<polygon stroke="black" stroke-width="1" fill="rgb(204, 204, 204)" fill-opacity="0.25" points="21.000,1.000 21.000,2.000 23.000,2.000 23.000,1.000 " />
<polygon stroke="black" stroke-width="1" fill="rgb(204, 204, 204)" fill-opacity="0.25" points="15.000,11.000 15.000,10.000 1.000,10.000 1.000,11.000 " />
<polygon stroke="black" stroke-width="1" fill="rgb(204, 204, 204)" fill-opacity="0.25" points="1.000,13.000 15.000,13.000 15.000,11.000 1.000,11.000 " />
<polygon stroke="black" stroke-width="1" fill="rgb(204, 204, 204)" fill-opacity="0.25" points="15.000,8.000 1.000,8.000 1.000,10.000 15.000,10.000 " />
<polygon stroke="black" stroke-width="1" fill="rgb(204, 204, 204)" fill-opacity="0.25" points="23.000,2.000 23.000,1.000 21.000,1.000 21.000,2.000 " />
<polygon stroke="black" stroke-width="1" fill="rgb(204, 204, 204)" fill-opacity="0.25" points="1.000,13.000 1.000,14.000 15.000,14.000 15.000,13.000 " />
<polygon stroke="black" stroke-width="1" fill="rgb(204, 204, 204)" fill-opacity="0.25" points="21.000,1.000 21.000,2.000 23.000,2.000 23.000,1.000 " />
<polygon stroke="black" stroke-width="1" fill="rgb(204, 204, 204)" fill-opacity="0.25" points="15.000,11.000 15.000,10.000 1.000,10.000 1.000,11.000 " />
<polygon stroke="black" stroke-width="1" fill="rgb(204, 204, 204)" fill-opacity="0.25" points="1.000,13.000 15.000,13.000 15.000,11.000 1.000,11.000 " />
<polygon stroke="black" stroke-width="1" fill="rgb(204, 204, 204)" fill-opacity="0.25" points="15.000,8.000 1.000,8.000 1.000,10.000 15.000,10.000 " />
<polygon stroke="black" stroke-width="1" fill="rgb(204, 204, 204)" fill-opacity="0.25" points="23.000,2.000 23.000,1.000 21.000,1.000 21.000,2.000 " />
<polygon stroke="black" stroke-width="1" fill="rgb(204, 204, 204)" fill-opacity="0.25" points="1.000,13.000 1.000,14.000 15.000,14.000 15.000,13.000 " />
<polygon stroke="black" stroke-width="1" fill="rgb(204, 204, 204)" fill-opacity="0.25" points="21.000,1.000 21.000,2.000 23.000,2.000 23.000,1.000 " />
<polygon stroke="black" stroke-width="1" fill="rgb(204, 204, 204)" fill-opacity="0.25" points="15.000,11.000 15.000,10.000 1.000,10.000 1.000,11.000 " />
<polygon stroke="black" stroke-width="1" fill="rgb(204, 204, 204)" fill-opacity="0.25" points="1.000,13.000 15.000,13.000 15.000,11.000 1.000,11.000 " />
<polygon stroke="black" stroke-width="1" fill="rgb(204, 204, 204)" fill-opacity="0.25" points="15.000,8.000 1.000,8.000 1.000,10.000 15.000,10.000 " />
<polygon stroke="black" stroke-width="1" fill="rgb(204, 204, 204)" fill-opacity="0.25" points="23.000,2.000 23.000,1.000 21.000,1.000 21.000,2.000 " />
<polygon stroke="black" stroke-width="1" fill="rgb(204, 204, 204)" fill-opacity="0.25" points="1.000,13.000 1.000,14.000 15.000,14.000 15.000,13.000 " />
<polygon stroke="black" stroke-width="1" fill="rgb(204, 204, 204)" fill-opacity="0.25" points="21.000,1.000 21.000,2.000 23.000,2.000 23.000,1.000 " />
<polygon stroke="black" stroke-width="1" fill="rgb(204, 204, 204)" fill-opacity="0.25" points="15.000,11.000 15.000,10.000 1.000,10.000 1.000,11.000 " />
<polygon stroke="black" stroke-width="1" fill="rgb(204, 204, 204)" fill-opacity="0.25" points="1.000,13.000 15.000,13.000 15.000,11.000 1.000,11.000 " />
<polygon stroke="black" stroke-width="1" fill="rgb(204, 204, 204)" fill-opacity="0.25" points="15.000,8.000 1.000,8.000 1.000,10.000 15.000,10.000 " />
<polygon stroke="black" stroke-width="1" fill="rgb(204, 204, 204)" fill-opacity="0.25" points="17.000,4.000 17.000,3.000 1.000,3.000 1.000,4.000 " />
<polygon stroke="black" stroke-width="1" fill="rgb(204, 204, 204)" fill-opacity="0.25" points="18.000,1.000 18.000,2.000 20.000,2.000 20.000,1.000 " />
<polygon stroke="black" stroke-width="1" fill="rgb(204, 204, 204)" fill-opacity="0.25" points="1.000,6.000 1.000,7.000 17.000,7.000 17.000,6.000 " />
<polygon stroke="black" stroke-width="1" fill="rgb(204, 204, 204)" fill-opacity="0.25" points="18.000,2.000 18.000,3.000 20.000,3.000 20.000,2.000 " />
<polygon stroke="black" stroke-width="1" fill="rgb(204, 204, 204)" fill-opacity="0.25" points="1.000,4.000 1.000,6.000 17.000,6.000 17.000,4.000 " />
<polygon stroke="black" stroke-width="1" fill="rgb(204, 204, 204)" fill-opacity="0.25" points="1.000,1.000 1.000,3.000 17.000,3.000 17.000,1.000 " />
<polygon stroke="black" stroke-width="1" fill="rgb(204, 204, 204)" fill-opacity="0.25" points="17.000,4.000 17.000,3.000 1.000,3.000 1.000,4.000 " />
<polygon stroke="black" stroke-width="1" fill="rgb(204, 204, 204)" fill-opacity="0.25" points="18.000,1.000 18.000,2.000 20.000,2.000 20.000,1.000 " />
<polygon stroke="black" stroke-width="1" fill="rgb(204, 204, 204)" fill-opacity="0.25" points="1.000,6.000 1.000,7.000 17.000,7.000 17.000,6.000 " />
<polygon stroke="black" stroke-width="1" fill="rgb(204, 204, 204)" fill-opacity="0.25" points="18.000,2.000 18.000,3.000 20.000,3.000 20.000,2.000 " />
<polygon stroke="black" stroke-width="1" fill="rgb(204, 204, 204)" fill-opacity="0.25" points="1.000,4.000 1.000,6.000 17.000,6.000 17.000,4.000 " />
<polygon stroke="black" stroke-width="1" fill="rgb(204, 204, 204)" fill-opacity="0.25" points="1.000,1.000 1.000,3.000 17.000,3.000 17.000,1.000 " />
<polygon stroke="black" stroke-width="1" fill="rgb(204, 204, 204)" fill-opacity="0.25" points="47.000,15.000 47.000,1.000 31.000,1.000 31.000,15.000 " />
<polygon stroke="black" stroke-width="1" fill="rgb(204, 204, 204)" fill-opacity="0.25" points="15.000,29.000 15.000,15.000 1.000,15.000 1.000,29.000 " />
<polygon stroke="black" stroke-width="1" fill="rgb(204, 204, 204)" fill-opacity="0.25" points="44.000,53.000 44.000,39.000 28.000,39.000 28.000,53.000 " />
<polygon stroke="black" stroke-width="1" fill="rgb(204, 204, 204)" fill-opacity="0.25" points="15.000,29.000 15.000,15.000 1.000,15.000 1.000,29.000 " />
<polygon stroke="black" stroke-width="1" fill="rgb(204, 204, 204)" fill-opacity="0.25" points="1.000,31.000 15.000,31.000 15.000,15.000 1.000,15.000 " />
<polygon stroke="black" stroke-width="1" fill="rgb(204, 204, 204)" fill-opacity="0.25" points="31.000,32.000 45.000,32.000 45.000,16.000 31.000,16.000 " />
<polygon stroke="black" stroke-width="1" fill="rgb(204, 204, 204)" fill-opacity="0.25" points="21.000,7.000 21.000,7.000 21.000,7.000 21.000,7.000 " />
<polygon stroke="black" stroke-width="1" fill="rgb(204, 204, 204)" fill-opacity="0.25" points="21.000,7.000 21.000,7.000 21.000,7.000 21.000,7.000 " />
<polygon stroke="black" stroke-width="1" fill="rgb(204, 204, 204)" fill-opacity="0.25" points="21.000,7.000 21.000,7.000 21.000,7.000 21.000,7.000 " />
<polygon stroke="black" stroke-width="1" fill="rgb(204, 204, 204)" fill-opacity="0.25" points="21.000,7.000 21.000,7.000 21.000,7.000 21.000,7.000 " />
<polygon stroke="black" stroke-width="1" fill="rgb(204, 204, 204)" fill-opacity="0.25" points="21.000,7.000 21.000,7.000 21.000,7.000 21.000,7.000 " />
<polygon stroke="black" stroke-width="1" fill="rgb(204, 204, 204)" fill-opacity="0.25" points="21.000,7.000 21.000,7.000 21.000,7.000 21.000,7.000 " />
<polygon stroke="black" stroke-width="1" fill="rgb(204, 204, 204)" fill-opacity="0.25" points="20.000,37.000 20.000,34.000 13.000,34.000 13.000,37.000 " />
<polygon stroke="black" stroke-width="1" fill="rgb(204, 204, 204)" fill-opacity="0.25" points="20.000,34.000 20.000,37.000 13.000,37.000 13.000,34.000 " />
<polygon stroke="black" stroke-width="1" fill="rgb(204, 204, 204)" fill-opacity="0.25" points="13.000,37.000 13.000,37.000 13.000,34.000 13.000,34.000 " />
<polygon stroke="black" stroke-width="1" fill="rgb(204, 204, 204)" fill-opacity="0.25" points="20.000,37.000 20.000,37.000 13.000,37.000 13.000,37.000 " />
<polygon stroke="black" stroke-width="1" fill="rgb(204, 204, 204)" fill-opacity="0.25" points="20.000,34.000 20.000,34.000 20.000,37.000 20.000,37.000 " />
<polygon stroke="black" stroke-width="1" fill="rgb(204, 204, 204)" fill-opacity="0.25" points="13.000,34.000 13.000,34.000 20.000,34.000 20.000,34.000 " />
<polygon stroke="black" stroke-width="1" fill="rgb(204, 204, 204)" fill-opacity="0.25" points="47.000,5.000 63.000,5.000 63.000,4.000 47.000,4.000 " />
<polygon stroke="black" stroke-width="1" fill="rgb(204, 204, 204)" fill-opacity="0.25" points="47.000,4.000 63.000,4.000 63.000,4.000 47.000,4.000 " />
<polygon stroke="black" stroke-width="1" fill="rgb(204, 204, 204)" fill-opacity="0.25" points="47.000,4.000 63.000,4.000 63.000,5.000 47.000,5.000 " />
<polygon stroke="black" stroke-width="1" fill="rgb(204, 204, 204)" fill-opacity="0.25" points="47.000,5.000 63.000,5.000 63.000,5.000 47.000,5.000 " />
<polygon stroke="black" stroke-width="1" fill="rgb(204, 204, 204)" fill-opacity="0.25" points="47.000,4.000 47.000,4.000 47.000,5.000 47.000,5.000 " />
<polygon stroke="black" stroke-width="1" fill="rgb(204, 204, 204)" fill-opacity="0.25" points="63.000,4.000 63.000,4.000 63.000,5.000 63.000,5.000 " />
<polygon stroke="black" stroke-width="1" fill="rgb(204, 204, 204)" fill-opacity="0.25" points="63.000,14.000 63.000,12.000 48.000,12.000 48.000,14.000 " />
<polygon stroke="black" stroke-width="1" fill="rgb(204, 204, 204)" fill-opacity="0.25" points="48.000,14.000 48.000,12.000 48.000,12.000 48.000,14.000 " />
<polygon stroke="black" stroke-width="1" fill="rgb(204, 204, 204)" fill-opacity="0.25" points="48.000,14.000 48.000,12.000 63.000,12.000 63.000,14.000 " />
<polygon stroke="black" stroke-width="1" fill="rgb(204, 204, 204)" fill-opacity="0.25" points="63.000,14.000 63.000,12.000 63.000,12.000 63.000,14.000 " />
<polygon stroke="black" stroke-width="1" fill="rgb(204, 204, 204)" fill-opacity="0.25" points="48.000,14.000 48.000,14.000 63.000,14.000 63.000,14.000 " />
<polygon stroke="black" stroke-width="1" fill="rgb(204, 204, 204)" fill-opacity="0.25" points="48.000,12.000 48.000,12.000 63.000,12.000 63.000,12.000 " />
<polygon stroke="black" stroke-width="1" fill="rgb(204, 204, 204)" fill-opacity="0.25" points="63.000,3.000 63.000,1.000 48.000,1.000 48.000,3.000 " />
<polygon stroke="black" stroke-width="1" fill="rgb(204, 204, 204)" fill-opacity="0.25" points="48.000,3.000 48.000,1.000 48.000,1.000 48.000,3.000 " />
<polygon stroke="black" stroke-width="1" fill="rgb(204, 204, 204)" fill-opacity="0.25" points="48.000,3.000 48.000,1.000 63.000,1.000 63.000,3.000 " />
<polygon stroke="black" stroke-width="1" fill="rgb(204, 204, 204)" fill-opacity="0.25" points="63.000,3.000 63.000,1.000 63.000,1.000 63.000,3.000 " />
<polygon stroke="black" stroke-width="1" fill="rgb(204, 204, 204)" fill-opacity="0.25" points="48.000,3.000 48.000,3.000 63.000,3.000 63.000,3.000 " />
<polygon stroke="black" stroke-width="1" fill="rgb(204, 204, 204)" fill-opacity="0.25" points="48.000,2.000 48.000,2.000 63.000,2.000 63.000,2.000 " />
<polygon stroke="black" stroke-width="1" fill="rgb(204, 204, 204)" fill-opacity="0.25" points="53.000,8.000 63.000,8.000 63.000,6.000 53.000,6.000 " />
<polygon stroke="black" stroke-width="1" fill="rgb(204, 204, 204)" fill-opacity="0.25" points="53.000,6.000 63.000,6.000 63.000,6.000 53.000,6.000 " />
<polygon stroke="black" stroke-width="1" fill="rgb(204, 204, 204)" fill-opacity="0.25" points="53.000,6.000 63.000,6.000 63.000,8.000 53.000,8.000 " />
<polygon stroke="black" stroke-width="1" fill="rgb(204, 204, 204)" fill-opacity="0.25" points="53.000,8.000 63.000,8.000 63.000,8.000 53.000,8.000 " />
<polygon stroke="black" stroke-width="1" fill="rgb(204, 204, 204)" fill-opacity="0.25" points="53.000,6.000 53.000,6.000 53.000,8.000 53.000,8.000 " />
<polygon stroke="black" stroke-width="1" fill="rgb(204, 204, 204)" fill-opacity="0.25" points="63.000,6.000 63.000,6.000 63.000,8.000 63.000,8.000 " />
<polygon stroke="black" stroke-width="1" fill="rgb(204, 204, 204)" fill-opacity="0.25" points="53.000,11.000 63.000,11.000 63.000,9.000 53.000,9.000 " />
<polygon stroke="black" stroke-width="1" fill="rgb(204, 204, 204)" fill-opacity="0.25" points="53.000,9.000 63.000,9.000 63.000,9.000 53.000,9.000 " />
<polygon stroke="black" stroke-width="1" fill="rgb(204, 204, 204)" fill-opacity="0.25" points="53.000,9.000 63.000,9.000 63.000,11.000 53.000,11.000 " />
<polygon stroke="black" stroke-width="1" fill="rgb(204, 204, 204)" fill-opacity="0.25" points="53.000,11.000 63.000,11.000 63.000,11.000 53.000,11.000 " />
<polygon stroke="black" stroke-width="1" fill="rgb(204, 204, 204)" fill-opacity="0.25" points="53.000,9.000 53.000,9.000 53.000,11.000 53.000,11.000 " />
<polygon stroke="black" stroke-width="1" fill="rgb(204, 204, 204)" fill-opacity="0.25" points="63.000,9.000 63.000,9.000 63.000,11.000 63.000,11.000 " />
<polygon stroke="black" stroke-width="1" fill="rgb(204, 204, 204)" fill-opacity="0.25" points="11.000,36.000 11.000,32.000 2.000,32.000 2.000,36.000 " />
<polygon stroke="black" stroke-width="1" fill="rgb(204, 204, 204)" fill-opacity="0.25" points="11.000,30.000 11.000,34.000 2.000,34.000 2.000,30.000 " />
<polygon stroke="black" stroke-width="1" fill="rgb(204, 204, 204)" fill-opacity="0.25" points="2.000,34.000 2.000,34.000 2.000,30.000 2.000,30.000 " />
<polygon stroke="black" stroke-width="1" fill="rgb(204, 204, 204)" fill-opacity="0.25" points="11.000,34.000 11.000,34.000 2.000,34.000 2.000,34.000 " />
<polygon stroke="black" stroke-width="1" fill="rgb(204, 204, 204)" fill-opacity="0.25" points="11.000,30.000 11.000,30.000 11.000,34.000 11.000,34.000 " />
<polygon stroke="black" stroke-width="1" fill="rgb(204, 204, 204)" fill-opacity="0.25" points="2.000,30.000 2.000,30.000 11.000,30.000 11.000,30.000 " />
<polygon stroke="black" stroke-width="1" fill="rgb(204, 204, 204)" fill-opacity="0.25" points="47.000,5.000 63.000,5.000 63.000,4.000 47.000,4.000 " />
<polygon stroke="black" stroke-width="1" fill="rgb(204, 204, 204)" fill-opacity="0.25" points="47.000,4.000 63.000,4.000 63.000,4.000 47.000,4.000 " />
<polygon stroke="black" stroke-width="1" fill="rgb(204, 204, 204)" fill-opacity="0.25" points="47.000,4.000 63.000,4.000 63.000,5.000 47.000,5.000 " />
<polygon stroke="black" stroke-width="1" fill="rgb(204, 204, 204)" fill-opacity="0.25" points="47.000,5.000 63.000,5.000 63.000,5.000 47.000,5.000 " />
<polygon stroke="black" stroke-width="1" fill="rgb(204, 204, 204)" fill-opacity="0.25" points="47.000,4.000 47.000,4.000 47.000,5.000 47.000,5.000 " />
<polygon stroke="black" stroke-width="1" fill="rgb(204, 204, 204)" fill-opacity="0.25" points="63.000,4.000 63.000,4.000 63.000,5.000 63.000,5.000 " />
<polygon stroke="black" stroke-width="1" fill="rgb(204, 204, 204)" fill-opacity="0.25" points="63.000,14.000 63.000,12.000 48.000,12.000 48.000,14.000 " />
<polygon stroke="black" stroke-width="1" fill="rgb(204, 204, 204)" fill-opacity="0.25" points="48.000,14.000 48.000,12.000 48.000,12.000 48.000,14.000 " />
<polygon stroke="black" stroke-width="1" fill="rgb(204, 204, 204)" fill-opacity="0.25" points="48.000,14.000 48.000,12.000 63.000,12.000 63.000,14.000 " />
<polygon stroke="black" stroke-width="1" fill="rgb(204, 204, 204)" fill-opacity="0.25" points="63.000,14.000 63.000,12.000 63.000,12.000 63.000,14.000 " />
<polygon stroke="black" stroke-width="1" fill="rgb(204, 204, 204)" fill-opacity="0.25" points="48.000,14.000 48.000,14.000 63.000,14.000 63.000,14.000 " />
<polygon stroke="black" stroke-width="1" fill="rgb(204, 204, 204)" fill-opacity="0.25" points="48.000,12.000 48.000,12.000 63.000,12.000 63.000,12.000 " />
<polygon stroke="black" stroke-width="1" fill="rgb(204, 204, 204)" fill-opacity="0.25" points="63.000,3.000 63.000,1.000 48.000,1.000 48.000,3.000 " />
<polygon stroke="black" stroke-width="1" fill="rgb(204, 204, 204)" fill-opacity="0.25" points="48.000,3.000 48.000,1.000 48.000,1.000 48.000,3.000 " />
<polygon stroke="black" stroke-width="1" fill="rgb(204, 204, 204)" fill-opacity="0.25" points="48.000,3.000 48.000,1.000 63.000,1.000 63.000,3.000 " />
<polygon stroke="black" stroke-width="1" fill="rgb(204, 204, 204)" fill-opacity="0.25" points="63.000,3.000 63.000,1.000 63.000,1.000 63.000,3.000 " />
<polygon stroke="black" stroke-width="1" fill="rgb(204, 204, 204)" fill-opacity="0.25" points="48.000,3.000 48.000,3.000 63.000,3.000 63.000,3.000 " />
<polygon stroke="black" stroke-width="1" fill="rgb(204, 204, 204)" fill-opacity="0.25" points="48.000,2.000 48.000,2.000 63.000,2.000 63.000,2.000 " />
<polygon stroke="black" stroke-width="1" fill="rgb(204, 204, 204)" fill-opacity="0.25" points="53.000,8.000 63.000,8.000 63.000,6.000 53.000,6.000 " />
<polygon stroke="black" stroke-width="1" fill="rgb(204, 204, 204)" fill-opacity="0.25" points="53.000,6.000 63.000,6.000 63.000,6.000 53.000,6.000 " />
<polygon stroke="black" stroke-width="1" fill="rgb(204, 204, 204)" fill-opacity="0.25" points="53.000,6.000 63.000,6.000 63.000,8.000 53.000,8.000 " />
<polygon stroke="black" stroke-width="1" fill="rgb(204, 204, 204)" fill-opacity="0.25" points="53.000,8.000 63.000,8.000 63.000,8.000 53.000,8.000 " />
<polygon stroke="black" stroke-width="1" fill="rgb(204, 204, 204)" fill-opacity="0.25" points="53.000,6.000 53.000,6.000 53.000,8.000 53.000,8.000 " />
<polygon stroke="black" stroke-width="1" fill="rgb(204, 204, 204)" fill-opacity="0.25" points="63.000,6.000 63.000,6.000 63.000,8.000 63.000,8.000 " />
<polygon stroke="black" stroke-width="1" fill="rgb(204, 204, 204)" fill-opacity="0.25" points="53.000,11.000 63.000,11.000 63.000,9.000 53.000,9.000 " />
<polygon stroke="black" stroke-width="1" fill="rgb(204, 204, 204)" fill-opacity="0.25" points="53.000,9.000 63.000,9.000 63.000,9.000 53.000,9.000 " />
<polygon stroke="black" stroke-width="1" fill="rgb(204, 204, 204)" fill-opacity="0.25" points="53.000,9.000 63.000,9.000 63.000,11.000 53.000,11.000 " />
<polygon stroke="black" stroke-width="1" fill="rgb(204, 204, 204)" fill-opacity="0.25" points="53.000,11.000 63.000,11.000 63.000,11.000 53.000,11.000 " />
<polygon stroke="black" stroke-width="1" fill="rgb(204, 204, 204)" fill-opacity="0.25" points="53.000,9.000 53.000,9.000 53.000,11.000 53.000,11.000 " />
<polygon stroke="black" stroke-width="1" fill="rgb(204, 204, 204)" fill-opacity="0.25" points="63.000,9.000 63.000,9.000 63.000,11.000 63.000,11.000 " />

</svg>
