<svg xmlns="http://www.w3.org/2000/svg" width="64" height="64" version="1.1" viewBox="0 0 64 64"><desc>rail.blend, (Blender 3.0.0)</desc><polygon fill="#CCC" fill-opacity=".25" stroke="#000" stroke-width="1" points="23 2 23 1 21 1 21 2"/><polygon fill="#CCC" fill-opacity=".25" stroke="#000" stroke-width="1" points="1 13 1 14 15 14 15 13"/><polygon fill="#CCC" fill-opacity=".25" stroke="#000" stroke-width="1" points="21 1 21 2 23 2 23 1"/><polygon fill="#CCC" fill-opacity=".25" stroke="#000" stroke-width="1" points="15 11 15 10 1 10 1 11"/><polygon fill="#CCC" fill-opacity=".25" stroke="#000" stroke-width="1" points="1 13 15 13 15 11 1 11"/><polygon fill="#CCC" fill-opacity=".25" stroke="#000" stroke-width="1" points="15 8 1 8 1 10 15 10"/><polygon fill="#CCC" fill-opacity=".25" stroke="#000" stroke-width="1" points="23 2 23 1 21 1 21 2"/><polygon fill="#CCC" fill-opacity=".25" stroke="#000" stroke-width="1" points="1 13 1 14 15 14 15 13"/><polygon fill="#CCC" fill-opacity=".25" stroke="#000" stroke-width="1" points="21 1 21 2 23 2 23 1"/><polygon fill="#CCC" fill-opacity=".25" stroke="#000" stroke-width="1" points="15 11 15 10 1 10 1 11"/><polygon fill="#CCC" fill-opacity=".25" stroke="#000" stroke-width="1" points="1 13 15 13 15 11 1 11"/><polygon fill="#CCC" fill-opacity=".25" stroke="#000" stroke-width="1" points="15 8 1 8 1 10 15 10"/><polygon fill="#CCC" fill-opacity=".25" stroke="#000" stroke-width="1" points="23 2 23 1 21 1 21 2"/><polygon fill="#CCC" fill-opacity=".25" stroke="#000" stroke-width="1" points="1 13 1 14 15 14 15 13"/><polygon fill="#CCC" fill-opacity=".25" stroke="#000" stroke-width="1" points="21 1 21 2 23 2 23 1"/><polygon fill="#CCC" fill-opacity=".25" stroke="#000" stroke-width="1" points="15 11 15 10 1 10 1 11"/><polygon fill="#CCC" fill-opacity=".25" stroke="#000" stroke-width="1" points="1 13 15 13 15 11 1 11"/><polygon fill="#CCC" fill-opacity=".25" stroke="#000" stroke-width="1" points="15 8 1 8 1 10 15 10"/><polygon fill="#CCC" fill-opacity=".25" stroke="#000" stroke-width="1" points="23 2 23 1 21 1 21 2"/><polygon fill="#CCC" fill-opacity=".25" stroke="#000" stroke-width="1" points="1 13 1 14 15 14 15 13"/><polygon fill="#CCC" fill-opacity=".25" stroke="#000" stroke-width="1" points="21 1 21 2 23 2 23 1"/><polygon fill="#CCC" fill-opacity=".25" stroke="#000" stroke-width="1" points="15 11 15 10 1 10 1 11"/><polygon fill="#CCC" fill-opacity=".25" stroke="#000" stroke-width="1" points="1 13 15 13 15 11 1 11"/><polygon fill="#CCC" fill-opacity=".25" stroke="#000" stroke-width="1" points="15 8 1 8 1 10 15 10"/><polygon fill="#CCC" fill-opacity=".25" stroke="#000" stroke-width="1" points="17 4 17 3 1 3 1 4"/><polygon fill="#CCC" fill-opacity=".25" stroke="#000" stroke-width="1" points="18 1 18 2 20 2 20 1"/><polygon fill="#CCC" fill-opacity=".25" stroke="#000" stroke-width="1" points="1 6 1 7 17 7 17 6"/><polygon fill="#CCC" fill-opacity=".25" stroke="#000" stroke-width="1" points="18 2 18 3 20 3 20 2"/><polygon fill="#CCC" fill-opacity=".25" stroke="#000" stroke-width="1" points="1 4 1 6 17 6 17 4"/><polygon fill="#CCC" fill-opacity=".25" stroke="#000" stroke-width="1" points="1 1 1 3 17 3 17 1"/><polygon fill="#CCC" fill-opacity=".25" stroke="#000" stroke-width="1" points="17 4 17 3 1 3 1 4"/><polygon fill="#CCC" fill-opacity=".25" stroke="#000" stroke-width="1" points="18 1 18 2 20 2 20 1"/><polygon fill="#CCC" fill-opacity=".25" stroke="#000" stroke-width="1" points="1 6 1 7 17 7 17 6"/><polygon fill="#CCC" fill-opacity=".25" stroke="#000" stroke-width="1" points="18 2 18 3 20 3 20 2"/><polygon fill="#CCC" fill-opacity=".25" stroke="#000" stroke-width="1" points="1 4 1 6 17 6 17 4"/><polygon fill="#CCC" fill-opacity=".25" stroke="#000" stroke-width="1" points="1 1 1 3 17 3 17 1"/><polygon fill="#CCC" fill-opacity=".25" stroke="#000" stroke-width="1" points="13 57 1 57 1 60 13 60"/><polygon fill="#CCC" fill-opacity=".25" stroke="#000" stroke-width="1" points="13 60 1 60 1 63 13 63"/><polygon fill="#CCC" fill-opacity=".25" stroke="#000" stroke-width="1" points="13 39 1 39 1 42 13 42"/><polygon fill="#CCC" fill-opacity=".25" stroke="#000" stroke-width="1" points="13 42 1 42 1 45 13 45"/><polygon fill="#CCC" fill-opacity=".25" stroke="#000" stroke-width="1" points="13 45 1 45 1 48 13 48"/><polygon fill="#CCC" fill-opacity=".25" stroke="#000" stroke-width="1" points="13 48 1 48 1 51 13 51"/><polygon fill="#CCC" fill-opacity=".25" stroke="#000" stroke-width="1" points="18 63 20 61 20 59 18 57 16 57 14 59 14 61 16 63"/><polygon fill="#CCC" fill-opacity=".25" stroke="#000" stroke-width="1" points="13 51 1 51 1 54 13 54"/><polygon fill="#CCC" fill-opacity=".25" stroke="#000" stroke-width="1" points="13 54 1 54 1 57 13 57"/><polygon fill="#CCC" fill-opacity=".25" stroke="#000" stroke-width="1" points="18 63 20 61 20 59 18 57 16 57 14 59 14 61 16 63"/><polygon fill="#CCC" fill-opacity=".25" stroke="#000" stroke-width="1" points="31 36 35 36 35 35 31 35"/><polygon fill="#CCC" fill-opacity=".25" stroke="#000" stroke-width="1" points="23 34 27 34 27 30 23 30"/><polygon fill="#CCC" fill-opacity=".25" stroke="#000" stroke-width="1" points="27 35 23 35 23 36 27 36"/><polygon fill="#CCC" fill-opacity=".25" stroke="#000" stroke-width="1" points="27 30 23 30 23 34 27 34"/><polygon fill="#CCC" fill-opacity=".25" stroke="#000" stroke-width="1" points="31 35 27 35 27 36 31 36"/><polygon fill="#CCC" fill-opacity=".25" stroke="#000" stroke-width="1" points="39 35 35 35 35 36 39 36"/><polygon fill="#CCC" fill-opacity=".25" stroke="#000" stroke-width="1" points="28 39 28 53 42 53 42 39"/><polygon fill="#CCC" fill-opacity=".25" stroke="#000" stroke-width="1" points="45 15 45 1 31 1 31 15"/><polygon fill="#CCC" fill-opacity=".25" stroke="#000" stroke-width="1" points="29 29 29 15 15 15 15 29"/><polygon fill="#CCC" fill-opacity=".25" stroke="#000" stroke-width="1" points="15 29 15 15 1 15 1 29"/><polygon fill="#CCC" fill-opacity=".25" stroke="#000" stroke-width="1" points="14 39 14 53 28 53 28 39"/><polygon fill="#CCC" fill-opacity=".25" stroke="#000" stroke-width="1" points="31 30 45 30 45 16 31 16"/><polygon fill="#CCC" fill-opacity=".25" stroke="#000" stroke-width="1" points="3 16 3 16 3 16 3 16"/><polygon fill="#CCC" fill-opacity=".25" stroke="#000" stroke-width="1" points="3 16 3 16 3 16 3 16"/><polygon fill="#CCC" fill-opacity=".25" stroke="#000" stroke-width="1" points="3 16 3 16 3 16 3 16"/><polygon fill="#CCC" fill-opacity=".25" stroke="#000" stroke-width="1" points="3 16 3 16 3 16 3 16"/><polygon fill="#CCC" fill-opacity=".25" stroke="#000" stroke-width="1" points="3 16 3 16 3 16 3 16"/><polygon fill="#CCC" fill-opacity=".25" stroke="#000" stroke-width="1" points="3 16 3 16 3 16 3 16"/><polygon fill="#CCC" fill-opacity=".25" stroke="#000" stroke-width="1" points="60 30 60 16 63 16 63 30"/><polygon fill="#CCC" fill-opacity=".25" stroke="#000" stroke-width="1" points="63 30 63 16 63 16 63 30"/><polygon fill="#CCC" fill-opacity=".25" stroke="#000" stroke-width="1" points="63 30 63 16 60 16 60 30"/><polygon fill="#CCC" fill-opacity=".25" stroke="#000" stroke-width="1" points="60 30 60 16 60 16 60 30"/><polygon fill="#CCC" fill-opacity=".25" stroke="#000" stroke-width="1" points="63 30 63 30 60 30 60 30"/><polygon fill="#CCC" fill-opacity=".25" stroke="#000" stroke-width="1" points="63 16 63 16 60 16 60 16"/><polygon fill="#CCC" fill-opacity=".25" stroke="#000" stroke-width="1" points="57 32 57 16 59 16 59 32"/><polygon fill="#CCC" fill-opacity=".25" stroke="#000" stroke-width="1" points="59 32 59 16 59 16 59 32"/><polygon fill="#CCC" fill-opacity=".25" stroke="#000" stroke-width="1" points="59 32 59 16 57 16 57 32"/><polygon fill="#CCC" fill-opacity=".25" stroke="#000" stroke-width="1" points="57 32 57 16 57 16 57 32"/><polygon fill="#CCC" fill-opacity=".25" stroke="#000" stroke-width="1" points="59 32 59 32 57 32 57 32"/><polygon fill="#CCC" fill-opacity=".25" stroke="#000" stroke-width="1" points="59 16 59 16 57 16 57 16"/><polygon fill="#CCC" fill-opacity=".25" stroke="#000" stroke-width="1" points="45 21 45 19 56 19 56 21"/><polygon fill="#CCC" fill-opacity=".25" stroke="#000" stroke-width="1" points="56 21 56 19 56 19 56 21"/><polygon fill="#CCC" fill-opacity=".25" stroke="#000" stroke-width="1" points="56 21 56 19 45 19 45 21"/><polygon fill="#CCC" fill-opacity=".25" stroke="#000" stroke-width="1" points="45 21 45 19 45 19 45 21"/><polygon fill="#CCC" fill-opacity=".25" stroke="#000" stroke-width="1" points="56 21 56 21 45 21 45 21"/><polygon fill="#CCC" fill-opacity=".25" stroke="#000" stroke-width="1" points="56 19 56 19 45 19 45 19"/><polygon fill="#CCC" fill-opacity=".25" stroke="#000" stroke-width="1" points="45 18 45 16 56 16 56 18"/><polygon fill="#CCC" fill-opacity=".25" stroke="#000" stroke-width="1" points="56 18 56 16 56 16 56 18"/><polygon fill="#CCC" fill-opacity=".25" stroke="#000" stroke-width="1" points="56 18 56 16 45 16 45 18"/><polygon fill="#CCC" fill-opacity=".25" stroke="#000" stroke-width="1" points="45 18 45 16 45 16 45 18"/><polygon fill="#CCC" fill-opacity=".25" stroke="#000" stroke-width="1" points="56 18 56 18 45 18 45 18"/><polygon fill="#CCC" fill-opacity=".25" stroke="#000" stroke-width="1" points="56 16 56 16 45 16 45 16"/><polygon fill="#CCC" fill-opacity=".25" stroke="#000" stroke-width="1" points="54 32 54 22 56 22 56 32"/><polygon fill="#CCC" fill-opacity=".25" stroke="#000" stroke-width="1" points="56 32 56 22 56 22 56 32"/><polygon fill="#CCC" fill-opacity=".25" stroke="#000" stroke-width="1" points="56 32 56 22 54 22 54 32"/><polygon fill="#CCC" fill-opacity=".25" stroke="#000" stroke-width="1" points="54 32 54 22 54 22 54 32"/><polygon fill="#CCC" fill-opacity=".25" stroke="#000" stroke-width="1" points="56 32 56 32 54 32 54 32"/><polygon fill="#CCC" fill-opacity=".25" stroke="#000" stroke-width="1" points="56 22 56 22 54 22 54 22"/></svg>