<svg xmlns="http://www.w3.org/2000/svg" width="64" height="64" version="1.1" viewBox="0 0 64 64"><desc>rail.blend, (Blender 3.0.0)</desc><polygon fill="#CCC" fill-opacity=".25" stroke="#000" stroke-width="1" points="23 2 23 1 21 1 21 2"/><polygon fill="#CCC" fill-opacity=".25" stroke="#000" stroke-width="1" points="1 13 1 14 15 14 15 13"/><polygon fill="#CCC" fill-opacity=".25" stroke="#000" stroke-width="1" points="21 1 21 2 23 2 23 1"/><polygon fill="#CCC" fill-opacity=".25" stroke="#000" stroke-width="1" points="15 11 15 10 1 10 1 11"/><polygon fill="#CCC" fill-opacity=".25" stroke="#000" stroke-width="1" points="1 13 15 13 15 11 1 11"/><polygon fill="#CCC" fill-opacity=".25" stroke="#000" stroke-width="1" points="15 8 1 8 1 10 15 10"/><polygon fill="#CCC" fill-opacity=".25" stroke="#000" stroke-width="1" points="23 2 23 1 21 1 21 2"/><polygon fill="#CCC" fill-opacity=".25" stroke="#000" stroke-width="1" points="1 13 1 14 15 14 15 13"/><polygon fill="#CCC" fill-opacity=".25" stroke="#000" stroke-width="1" points="21 1 21 2 23 2 23 1"/><polygon fill="#CCC" fill-opacity=".25" stroke="#000" stroke-width="1" points="15 11 15 10 1 10 1 11"/><polygon fill="#CCC" fill-opacity=".25" stroke="#000" stroke-width="1" points="1 13 15 13 15 11 1 11"/><polygon fill="#CCC" fill-opacity=".25" stroke="#000" stroke-width="1" points="15 8 1 8 1 10 15 10"/><polygon fill="#CCC" fill-opacity=".25" stroke="#000" stroke-width="1" points="23 2 23 1 21 1 21 2"/><polygon fill="#CCC" fill-opacity=".25" stroke="#000" stroke-width="1" points="1 13 1 14 15 14 15 13"/><polygon fill="#CCC" fill-opacity=".25" stroke="#000" stroke-width="1" points="21 1 21 2 23 2 23 1"/><polygon fill="#CCC" fill-opacity=".25" stroke="#000" stroke-width="1" points="15 11 15 10 1 10 1 11"/><polygon fill="#CCC" fill-opacity=".25" stroke="#000" stroke-width="1" points="1 13 15 13 15 11 1 11"/><polygon fill="#CCC" fill-opacity=".25" stroke="#000" stroke-width="1" points="15 8 1 8 1 10 15 10"/><polygon fill="#CCC" fill-opacity=".25" stroke="#000" stroke-width="1" points="23 2 23 1 21 1 21 2"/><polygon fill="#CCC" fill-opacity=".25" stroke="#000" stroke-width="1" points="1 13 1 14 15 14 15 13"/><polygon fill="#CCC" fill-opacity=".25" stroke="#000" stroke-width="1" points="21 1 21 2 23 2 23 1"/><polygon fill="#CCC" fill-opacity=".25" stroke="#000" stroke-width="1" points="15 11 15 10 1 10 1 11"/><polygon fill="#CCC" fill-opacity=".25" stroke="#000" stroke-width="1" points="1 13 15 13 15 11 1 11"/><polygon fill="#CCC" fill-opacity=".25" stroke="#000" stroke-width="1" points="15 8 1 8 1 10 15 10"/><polygon fill="#CCC" fill-opacity=".25" stroke="#000" stroke-width="1" points="17 4 17 3 1 3 1 4"/><polygon fill="#CCC" fill-opacity=".25" stroke="#000" stroke-width="1" points="18 1 18 2 20 2 20 1"/><polygon fill="#CCC" fill-opacity=".25" stroke="#000" stroke-width="1" points="1 6 1 7 17 7 17 6"/><polygon fill="#CCC" fill-opacity=".25" stroke="#000" stroke-width="1" points="18 2 18 3 20 3 20 2"/><polygon fill="#CCC" fill-opacity=".25" stroke="#000" stroke-width="1" points="1 4 1 6 17 6 17 4"/><polygon fill="#CCC" fill-opacity=".25" stroke="#000" stroke-width="1" points="1 1 1 3 17 3 17 1"/><polygon fill="#CCC" fill-opacity=".25" stroke="#000" stroke-width="1" points="17 4 17 3 1 3 1 4"/><polygon fill="#CCC" fill-opacity=".25" stroke="#000" stroke-width="1" points="18 1 18 2 20 2 20 1"/><polygon fill="#CCC" fill-opacity=".25" stroke="#000" stroke-width="1" points="1 6 1 7 17 7 17 6"/><polygon fill="#CCC" fill-opacity=".25" stroke="#000" stroke-width="1" points="18 2 18 3 20 3 20 2"/><polygon fill="#CCC" fill-opacity=".25" stroke="#000" stroke-width="1" points="1 4 1 6 17 6 17 4"/><polygon fill="#CCC" fill-opacity=".25" stroke="#000" stroke-width="1" points="1 1 1 3 17 3 17 1"/><polygon fill="#CCC" fill-opacity=".25" stroke="#000" stroke-width="1" points="47 15 47 1 31 1 31 15"/><polygon fill="#CCC" fill-opacity=".25" stroke="#000" stroke-width="1" points="15 29 15 15 1 15 1 29"/><polygon fill="#CCC" fill-opacity=".25" stroke="#000" stroke-width="1" points="44 53 44 39 28 39 28 53"/><polygon fill="#CCC" fill-opacity=".25" stroke="#000" stroke-width="1" points="15 29 15 15 1 15 1 29"/><polygon fill="#CCC" fill-opacity=".25" stroke="#000" stroke-width="1" points="1 31 15 31 15 15 1 15"/><polygon fill="#CCC" fill-opacity=".25" stroke="#000" stroke-width="1" points="31 32 45 32 45 16 31 16"/><polygon fill="#CCC" fill-opacity=".25" stroke="#000" stroke-width="1" points="21 7 21 7 21 7 21 7"/><polygon fill="#CCC" fill-opacity=".25" stroke="#000" stroke-width="1" points="21 7 21 7 21 7 21 7"/><polygon fill="#CCC" fill-opacity=".25" stroke="#000" stroke-width="1" points="21 7 21 7 21 7 21 7"/><polygon fill="#CCC" fill-opacity=".25" stroke="#000" stroke-width="1" points="21 7 21 7 21 7 21 7"/><polygon fill="#CCC" fill-opacity=".25" stroke="#000" stroke-width="1" points="21 7 21 7 21 7 21 7"/><polygon fill="#CCC" fill-opacity=".25" stroke="#000" stroke-width="1" points="21 7 21 7 21 7 21 7"/><polygon fill="#CCC" fill-opacity=".25" stroke="#000" stroke-width="1" points="20 37 20 34 13 34 13 37"/><polygon fill="#CCC" fill-opacity=".25" stroke="#000" stroke-width="1" points="20 34 20 37 13 37 13 34"/><polygon fill="#CCC" fill-opacity=".25" stroke="#000" stroke-width="1" points="13 37 13 37 13 34 13 34"/><polygon fill="#CCC" fill-opacity=".25" stroke="#000" stroke-width="1" points="20 37 20 37 13 37 13 37"/><polygon fill="#CCC" fill-opacity=".25" stroke="#000" stroke-width="1" points="20 34 20 34 20 37 20 37"/><polygon fill="#CCC" fill-opacity=".25" stroke="#000" stroke-width="1" points="13 34 13 34 20 34 20 34"/><polygon fill="#CCC" fill-opacity=".25" stroke="#000" stroke-width="1" points="47 5 63 5 63 4 47 4"/><polygon fill="#CCC" fill-opacity=".25" stroke="#000" stroke-width="1" points="47 4 63 4 63 4 47 4"/><polygon fill="#CCC" fill-opacity=".25" stroke="#000" stroke-width="1" points="47 4 63 4 63 5 47 5"/><polygon fill="#CCC" fill-opacity=".25" stroke="#000" stroke-width="1" points="47 5 63 5 63 5 47 5"/><polygon fill="#CCC" fill-opacity=".25" stroke="#000" stroke-width="1" points="47 4 47 4 47 5 47 5"/><polygon fill="#CCC" fill-opacity=".25" stroke="#000" stroke-width="1" points="63 4 63 4 63 5 63 5"/><polygon fill="#CCC" fill-opacity=".25" stroke="#000" stroke-width="1" points="63 14 63 12 48 12 48 14"/><polygon fill="#CCC" fill-opacity=".25" stroke="#000" stroke-width="1" points="48 14 48 12 48 12 48 14"/><polygon fill="#CCC" fill-opacity=".25" stroke="#000" stroke-width="1" points="48 14 48 12 63 12 63 14"/><polygon fill="#CCC" fill-opacity=".25" stroke="#000" stroke-width="1" points="63 14 63 12 63 12 63 14"/><polygon fill="#CCC" fill-opacity=".25" stroke="#000" stroke-width="1" points="48 14 48 14 63 14 63 14"/><polygon fill="#CCC" fill-opacity=".25" stroke="#000" stroke-width="1" points="48 12 48 12 63 12 63 12"/><polygon fill="#CCC" fill-opacity=".25" stroke="#000" stroke-width="1" points="63 3 63 1 48 1 48 3"/><polygon fill="#CCC" fill-opacity=".25" stroke="#000" stroke-width="1" points="48 3 48 1 48 1 48 3"/><polygon fill="#CCC" fill-opacity=".25" stroke="#000" stroke-width="1" points="48 3 48 1 63 1 63 3"/><polygon fill="#CCC" fill-opacity=".25" stroke="#000" stroke-width="1" points="63 3 63 1 63 1 63 3"/><polygon fill="#CCC" fill-opacity=".25" stroke="#000" stroke-width="1" points="48 3 48 3 63 3 63 3"/><polygon fill="#CCC" fill-opacity=".25" stroke="#000" stroke-width="1" points="48 2 48 2 63 2 63 2"/><polygon fill="#CCC" fill-opacity=".25" stroke="#000" stroke-width="1" points="53 8 63 8 63 6 53 6"/><polygon fill="#CCC" fill-opacity=".25" stroke="#000" stroke-width="1" points="53 6 63 6 63 6 53 6"/><polygon fill="#CCC" fill-opacity=".25" stroke="#000" stroke-width="1" points="53 6 63 6 63 8 53 8"/><polygon fill="#CCC" fill-opacity=".25" stroke="#000" stroke-width="1" points="53 8 63 8 63 8 53 8"/><polygon fill="#CCC" fill-opacity=".25" stroke="#000" stroke-width="1" points="53 6 53 6 53 8 53 8"/><polygon fill="#CCC" fill-opacity=".25" stroke="#000" stroke-width="1" points="63 6 63 6 63 8 63 8"/><polygon fill="#CCC" fill-opacity=".25" stroke="#000" stroke-width="1" points="53 11 63 11 63 9 53 9"/><polygon fill="#CCC" fill-opacity=".25" stroke="#000" stroke-width="1" points="53 9 63 9 63 9 53 9"/><polygon fill="#CCC" fill-opacity=".25" stroke="#000" stroke-width="1" points="53 9 63 9 63 11 53 11"/><polygon fill="#CCC" fill-opacity=".25" stroke="#000" stroke-width="1" points="53 11 63 11 63 11 53 11"/><polygon fill="#CCC" fill-opacity=".25" stroke="#000" stroke-width="1" points="53 9 53 9 53 11 53 11"/><polygon fill="#CCC" fill-opacity=".25" stroke="#000" stroke-width="1" points="63 9 63 9 63 11 63 11"/><polygon fill="#CCC" fill-opacity=".25" stroke="#000" stroke-width="1" points="11 36 11 32 2 32 2 36"/><polygon fill="#CCC" fill-opacity=".25" stroke="#000" stroke-width="1" points="11 30 11 34 2 34 2 30"/><polygon fill="#CCC" fill-opacity=".25" stroke="#000" stroke-width="1" points="2 34 2 34 2 30 2 30"/><polygon fill="#CCC" fill-opacity=".25" stroke="#000" stroke-width="1" points="11 34 11 34 2 34 2 34"/><polygon fill="#CCC" fill-opacity=".25" stroke="#000" stroke-width="1" points="11 30 11 30 11 34 11 34"/><polygon fill="#CCC" fill-opacity=".25" stroke="#000" stroke-width="1" points="2 30 2 30 11 30 11 30"/><polygon fill="#CCC" fill-opacity=".25" stroke="#000" stroke-width="1" points="47 5 63 5 63 4 47 4"/><polygon fill="#CCC" fill-opacity=".25" stroke="#000" stroke-width="1" points="47 4 63 4 63 4 47 4"/><polygon fill="#CCC" fill-opacity=".25" stroke="#000" stroke-width="1" points="47 4 63 4 63 5 47 5"/><polygon fill="#CCC" fill-opacity=".25" stroke="#000" stroke-width="1" points="47 5 63 5 63 5 47 5"/><polygon fill="#CCC" fill-opacity=".25" stroke="#000" stroke-width="1" points="47 4 47 4 47 5 47 5"/><polygon fill="#CCC" fill-opacity=".25" stroke="#000" stroke-width="1" points="63 4 63 4 63 5 63 5"/><polygon fill="#CCC" fill-opacity=".25" stroke="#000" stroke-width="1" points="63 14 63 12 48 12 48 14"/><polygon fill="#CCC" fill-opacity=".25" stroke="#000" stroke-width="1" points="48 14 48 12 48 12 48 14"/><polygon fill="#CCC" fill-opacity=".25" stroke="#000" stroke-width="1" points="48 14 48 12 63 12 63 14"/><polygon fill="#CCC" fill-opacity=".25" stroke="#000" stroke-width="1" points="63 14 63 12 63 12 63 14"/><polygon fill="#CCC" fill-opacity=".25" stroke="#000" stroke-width="1" points="48 14 48 14 63 14 63 14"/><polygon fill="#CCC" fill-opacity=".25" stroke="#000" stroke-width="1" points="48 12 48 12 63 12 63 12"/><polygon fill="#CCC" fill-opacity=".25" stroke="#000" stroke-width="1" points="63 3 63 1 48 1 48 3"/><polygon fill="#CCC" fill-opacity=".25" stroke="#000" stroke-width="1" points="48 3 48 1 48 1 48 3"/><polygon fill="#CCC" fill-opacity=".25" stroke="#000" stroke-width="1" points="48 3 48 1 63 1 63 3"/><polygon fill="#CCC" fill-opacity=".25" stroke="#000" stroke-width="1" points="63 3 63 1 63 1 63 3"/><polygon fill="#CCC" fill-opacity=".25" stroke="#000" stroke-width="1" points="48 3 48 3 63 3 63 3"/><polygon fill="#CCC" fill-opacity=".25" stroke="#000" stroke-width="1" points="48 2 48 2 63 2 63 2"/><polygon fill="#CCC" fill-opacity=".25" stroke="#000" stroke-width="1" points="53 8 63 8 63 6 53 6"/><polygon fill="#CCC" fill-opacity=".25" stroke="#000" stroke-width="1" points="53 6 63 6 63 6 53 6"/><polygon fill="#CCC" fill-opacity=".25" stroke="#000" stroke-width="1" points="53 6 63 6 63 8 53 8"/><polygon fill="#CCC" fill-opacity=".25" stroke="#000" stroke-width="1" points="53 8 63 8 63 8 53 8"/><polygon fill="#CCC" fill-opacity=".25" stroke="#000" stroke-width="1" points="53 6 53 6 53 8 53 8"/><polygon fill="#CCC" fill-opacity=".25" stroke="#000" stroke-width="1" points="63 6 63 6 63 8 63 8"/><polygon fill="#CCC" fill-opacity=".25" stroke="#000" stroke-width="1" points="53 11 63 11 63 9 53 9"/><polygon fill="#CCC" fill-opacity=".25" stroke="#000" stroke-width="1" points="53 9 63 9 63 9 53 9"/><polygon fill="#CCC" fill-opacity=".25" stroke="#000" stroke-width="1" points="53 9 63 9 63 11 53 11"/><polygon fill="#CCC" fill-opacity=".25" stroke="#000" stroke-width="1" points="53 11 63 11 63 11 53 11"/><polygon fill="#CCC" fill-opacity=".25" stroke="#000" stroke-width="1" points="53 9 53 9 53 11 53 11"/><polygon fill="#CCC" fill-opacity=".25" stroke="#000" stroke-width="1" points="63 9 63 9 63 11 63 11"/></svg>