<svg xmlns="http://www.w3.org/2000/svg" width="64" height="64" version="1.1" viewBox="0 0 64 64"><desc>rail.blend, (Blender 3.0.0)</desc><polygon fill="#CCC" fill-opacity=".25" stroke="#000" stroke-width="1" points="2 37 2 37 2 30 2 30"/><polygon fill="#CCC" fill-opacity=".25" stroke="#000" stroke-width="1" points="2 30 2 30 5 30 5 30"/><polygon fill="#CCC" fill-opacity=".25" stroke="#000" stroke-width="1" points="5 30 5 30 5 37 5 37"/><polygon fill="#CCC" fill-opacity=".25" stroke="#000" stroke-width="1" points="5 37 5 37 2 37 2 37"/><polygon fill="#CCC" fill-opacity=".25" stroke="#000" stroke-width="1" points="2 30 5 30 5 37 2 37"/><polygon fill="#CCC" fill-opacity=".25" stroke="#000" stroke-width="1" points="5 30 2 30 2 37 5 37"/><polygon fill="#CCC" fill-opacity=".25" stroke="#000" stroke-width="1" points="6 35 6 35 6 30 6 30"/><polygon fill="#CCC" fill-opacity=".25" stroke="#000" stroke-width="1" points="6 30 6 30 9 30 9 30"/><polygon fill="#CCC" fill-opacity=".25" stroke="#000" stroke-width="1" points="9 30 9 30 9 35 9 35"/><polygon fill="#CCC" fill-opacity=".25" stroke="#000" stroke-width="1" points="9 35 9 35 6 35 6 35"/><polygon fill="#CCC" fill-opacity=".25" stroke="#000" stroke-width="1" points="6 30 9 30 9 35 6 35"/><polygon fill="#CCC" fill-opacity=".25" stroke="#000" stroke-width="1" points="9 30 6 30 6 35 9 35"/></svg>