<svg xmlns="http://www.w3.org/2000/svg" width="64" height="64" version="1.1" viewBox="0 0 64 64"><desc>rail.blend, (Blender 3.0.0)</desc><polygon fill="#CCC" fill-opacity=".25" stroke="#000" stroke-width="1" points="23 2 23 1 21 1 21 2"/><polygon fill="#CCC" fill-opacity=".25" stroke="#000" stroke-width="1" points="1 13 1 14 15 14 15 13"/><polygon fill="#CCC" fill-opacity=".25" stroke="#000" stroke-width="1" points="21 1 21 2 23 2 23 1"/><polygon fill="#CCC" fill-opacity=".25" stroke="#000" stroke-width="1" points="15 11 15 10 1 10 1 11"/><polygon fill="#CCC" fill-opacity=".25" stroke="#000" stroke-width="1" points="1 13 15 13 15 11 1 11"/><polygon fill="#CCC" fill-opacity=".25" stroke="#000" stroke-width="1" points="15 8 1 8 1 10 15 10"/><polygon fill="#CCC" fill-opacity=".25" stroke="#000" stroke-width="1" points="23 2 23 1 21 1 21 2"/><polygon fill="#CCC" fill-opacity=".25" stroke="#000" stroke-width="1" points="1 13 1 14 15 14 15 13"/><polygon fill="#CCC" fill-opacity=".25" stroke="#000" stroke-width="1" points="21 1 21 2 23 2 23 1"/><polygon fill="#CCC" fill-opacity=".25" stroke="#000" stroke-width="1" points="15 11 15 10 1 10 1 11"/><polygon fill="#CCC" fill-opacity=".25" stroke="#000" stroke-width="1" points="1 13 15 13 15 11 1 11"/><polygon fill="#CCC" fill-opacity=".25" stroke="#000" stroke-width="1" points="15 8 1 8 1 10 15 10"/><polygon fill="#CCC" fill-opacity=".25" stroke="#000" stroke-width="1" points="23 2 23 1 21 1 21 2"/><polygon fill="#CCC" fill-opacity=".25" stroke="#000" stroke-width="1" points="1 13 1 14 15 14 15 13"/><polygon fill="#CCC" fill-opacity=".25" stroke="#000" stroke-width="1" points="21 1 21 2 23 2 23 1"/><polygon fill="#CCC" fill-opacity=".25" stroke="#000" stroke-width="1" points="15 11 15 10 1 10 1 11"/><polygon fill="#CCC" fill-opacity=".25" stroke="#000" stroke-width="1" points="1 13 15 13 15 11 1 11"/><polygon fill="#CCC" fill-opacity=".25" stroke="#000" stroke-width="1" points="15 8 1 8 1 10 15 10"/><polygon fill="#CCC" fill-opacity=".25" stroke="#000" stroke-width="1" points="23 2 23 1 21 1 21 2"/><polygon fill="#CCC" fill-opacity=".25" stroke="#000" stroke-width="1" points="1 13 1 14 15 14 15 13"/><polygon fill="#CCC" fill-opacity=".25" stroke="#000" stroke-width="1" points="21 1 21 2 23 2 23 1"/><polygon fill="#CCC" fill-opacity=".25" stroke="#000" stroke-width="1" points="15 11 15 10 1 10 1 11"/><polygon fill="#CCC" fill-opacity=".25" stroke="#000" stroke-width="1" points="1 13 15 13 15 11 1 11"/><polygon fill="#CCC" fill-opacity=".25" stroke="#000" stroke-width="1" points="15 8 1 8 1 10 15 10"/><polygon fill="#CCC" fill-opacity=".25" stroke="#000" stroke-width="1" points="17 4 17 3 1 3 1 4"/><polygon fill="#CCC" fill-opacity=".25" stroke="#000" stroke-width="1" points="18 1 18 2 20 2 20 1"/><polygon fill="#CCC" fill-opacity=".25" stroke="#000" stroke-width="1" points="1 6 1 7 17 7 17 6"/><polygon fill="#CCC" fill-opacity=".25" stroke="#000" stroke-width="1" points="18 2 18 3 20 3 20 2"/><polygon fill="#CCC" fill-opacity=".25" stroke="#000" stroke-width="1" points="1 4 1 6 17 6 17 4"/><polygon fill="#CCC" fill-opacity=".25" stroke="#000" stroke-width="1" points="1 1 1 3 17 3 17 1"/><polygon fill="#CCC" fill-opacity=".25" stroke="#000" stroke-width="1" points="17 4 17 3 1 3 1 4"/><polygon fill="#CCC" fill-opacity=".25" stroke="#000" stroke-width="1" points="18 1 18 2 20 2 20 1"/><polygon fill="#CCC" fill-opacity=".25" stroke="#000" stroke-width="1" points="1 6 1 7 17 7 17 6"/><polygon fill="#CCC" fill-opacity=".25" stroke="#000" stroke-width="1" points="18 2 18 3 20 3 20 2"/><polygon fill="#CCC" fill-opacity=".25" stroke="#000" stroke-width="1" points="1 4 1 6 17 6 17 4"/><polygon fill="#CCC" fill-opacity=".25" stroke="#000" stroke-width="1" points="1 1 1 3 17 3 17 1"/><polygon fill="#CCC" fill-opacity=".25" stroke="#000" stroke-width="1" points="13 57 1 57 1 60 13 60"/><polygon fill="#CCC" fill-opacity=".25" stroke="#000" stroke-width="1" points="13 60 1 60 1 63 13 63"/><polygon fill="#CCC" fill-opacity=".25" stroke="#000" stroke-width="1" points="13 39 1 39 1 42 13 42"/><polygon fill="#CCC" fill-opacity=".25" stroke="#000" stroke-width="1" points="13 42 1 42 1 45 13 45"/><polygon fill="#CCC" fill-opacity=".25" stroke="#000" stroke-width="1" points="13 45 1 45 1 48 13 48"/><polygon fill="#CCC" fill-opacity=".25" stroke="#000" stroke-width="1" points="13 48 1 48 1 51 13 51"/><polygon fill="#CCC" fill-opacity=".25" stroke="#000" stroke-width="1" points="18 63 20 61 20 59 18 57 16 57 14 59 14 61 16 63"/><polygon fill="#CCC" fill-opacity=".25" stroke="#000" stroke-width="1" points="13 51 1 51 1 54 13 54"/><polygon fill="#CCC" fill-opacity=".25" stroke="#000" stroke-width="1" points="13 54 1 54 1 57 13 57"/><polygon fill="#CCC" fill-opacity=".25" stroke="#000" stroke-width="1" points="18 63 20 61 20 59 18 57 16 57 14 59 14 61 16 63"/><polygon fill="#CCC" fill-opacity=".25" stroke="#000" stroke-width="1" points="31 36 35 36 35 35 31 35"/><polygon fill="#CCC" fill-opacity=".25" stroke="#000" stroke-width="1" points="23 34 27 34 27 30 23 30"/><polygon fill="#CCC" fill-opacity=".25" stroke="#000" stroke-width="1" points="27 35 23 35 23 36 27 36"/><polygon fill="#CCC" fill-opacity=".25" stroke="#000" stroke-width="1" points="27 30 23 30 23 34 27 34"/><polygon fill="#CCC" fill-opacity=".25" stroke="#000" stroke-width="1" points="31 35 27 35 27 36 31 36"/><polygon fill="#CCC" fill-opacity=".25" stroke="#000" stroke-width="1" points="39 35 35 35 35 36 39 36"/><polygon fill="#CCC" fill-opacity=".25" stroke="#000" stroke-width="1" points="28 39 28 53 44 53 44 39"/><polygon fill="#CCC" fill-opacity=".25" stroke="#000" stroke-width="1" points="31 1 31 15 45 15 45 1"/><polygon fill="#CCC" fill-opacity=".25" stroke="#000" stroke-width="1" points="15 15 15 29 31 29 31 15"/><polygon fill="#CCC" fill-opacity=".25" stroke="#000" stroke-width="1" points="1 29 15 29 15 16 1 16"/><polygon fill="#CCC" fill-opacity=".25" stroke="#000" stroke-width="1" points="29 53 29 39 14 39 14 53"/><polygon fill="#CCC" fill-opacity=".25" stroke="#000" stroke-width="1" points="31 31 45 31 45 15 31 15"/><polygon fill="#CCC" fill-opacity=".25" stroke="#000" stroke-width="1" points="21 7 21 7 21 7 21 7"/><polygon fill="#CCC" fill-opacity=".25" stroke="#000" stroke-width="1" points="21 7 21 7 21 7 21 7"/><polygon fill="#CCC" fill-opacity=".25" stroke="#000" stroke-width="1" points="21 7 21 7 21 7 21 7"/><polygon fill="#CCC" fill-opacity=".25" stroke="#000" stroke-width="1" points="21 7 21 7 21 7 21 7"/><polygon fill="#CCC" fill-opacity=".25" stroke="#000" stroke-width="1" points="21 7 21 7 21 7 21 7"/><polygon fill="#CCC" fill-opacity=".25" stroke="#000" stroke-width="1" points="21 7 21 7 21 7 21 7"/><polygon fill="#CCC" fill-opacity=".25" stroke="#000" stroke-width="1" points="7 31 7 31 7 31 7 31"/><polygon fill="#CCC" fill-opacity=".25" stroke="#000" stroke-width="1" points="7 31 7 31 7 31 7 31"/><polygon fill="#CCC" fill-opacity=".25" stroke="#000" stroke-width="1" points="7 31 7 31 7 31 7 31"/><polygon fill="#CCC" fill-opacity=".25" stroke="#000" stroke-width="1" points="7 31 7 31 7 31 7 31"/><polygon fill="#CCC" fill-opacity=".25" stroke="#000" stroke-width="1" points="2 30 5 30 5 37 2 37"/><polygon fill="#CCC" fill-opacity=".25" stroke="#000" stroke-width="1" points="5 30 2 30 2 37 5 37"/><polygon fill="#CCC" fill-opacity=".25" stroke="#000" stroke-width="1" points="7 31 7 31 7 31 7 31"/><polygon fill="#CCC" fill-opacity=".25" stroke="#000" stroke-width="1" points="7 31 7 31 7 31 7 31"/><polygon fill="#CCC" fill-opacity=".25" stroke="#000" stroke-width="1" points="7 31 7 31 7 31 7 31"/><polygon fill="#CCC" fill-opacity=".25" stroke="#000" stroke-width="1" points="7 31 7 31 7 31 7 31"/><polygon fill="#CCC" fill-opacity=".25" stroke="#000" stroke-width="1" points="6 30 9 30 9 35 6 35"/><polygon fill="#CCC" fill-opacity=".25" stroke="#000" stroke-width="1" points="9 30 6 30 6 35 9 35"/><polygon fill="#CCC" fill-opacity=".25" stroke="#000" stroke-width="1" points="50 10 63 10 63 7 50 7"/><polygon fill="#CCC" fill-opacity=".25" stroke="#000" stroke-width="1" points="50 7 63 7 63 7 50 7"/><polygon fill="#CCC" fill-opacity=".25" stroke="#000" stroke-width="1" points="50 7 63 7 63 10 50 10"/><polygon fill="#CCC" fill-opacity=".25" stroke="#000" stroke-width="1" points="50 10 63 10 63 10 50 10"/><polygon fill="#CCC" fill-opacity=".25" stroke="#000" stroke-width="1" points="50 7 50 7 50 10 50 10"/><polygon fill="#CCC" fill-opacity=".25" stroke="#000" stroke-width="1" points="63 7 63 7 63 10 63 10"/><polygon fill="#CCC" fill-opacity=".25" stroke="#000" stroke-width="1" points="63 14 63 14 63 16 63 16"/><polygon fill="#CCC" fill-opacity=".25" stroke="#000" stroke-width="1" points="53 14 53 14 53 16 53 16"/><polygon fill="#CCC" fill-opacity=".25" stroke="#000" stroke-width="1" points="53 16 63 16 63 16 53 16"/><polygon fill="#CCC" fill-opacity=".25" stroke="#000" stroke-width="1" points="53 14 63 14 63 16 53 16"/><polygon fill="#CCC" fill-opacity=".25" stroke="#000" stroke-width="1" points="53 14 63 14 63 14 53 14"/><polygon fill="#CCC" fill-opacity=".25" stroke="#000" stroke-width="1" points="53 16 63 16 63 14 53 14"/><polygon fill="#CCC" fill-opacity=".25" stroke="#000" stroke-width="1" points="63 6 63 4 51 4 51 6"/><polygon fill="#CCC" fill-opacity=".25" stroke="#000" stroke-width="1" points="51 6 51 4 51 4 51 6"/><polygon fill="#CCC" fill-opacity=".25" stroke="#000" stroke-width="1" points="51 6 51 4 63 4 63 6"/><polygon fill="#CCC" fill-opacity=".25" stroke="#000" stroke-width="1" points="63 6 63 4 63 4 63 6"/><polygon fill="#CCC" fill-opacity=".25" stroke="#000" stroke-width="1" points="51 6 51 6 63 6 63 6"/><polygon fill="#CCC" fill-opacity=".25" stroke="#000" stroke-width="1" points="51 4 51 4 63 4 63 4"/><polygon fill="#CCC" fill-opacity=".25" stroke="#000" stroke-width="1" points="63 3 63 1 51 1 51 3"/><polygon fill="#CCC" fill-opacity=".25" stroke="#000" stroke-width="1" points="51 3 51 1 51 1 51 3"/><polygon fill="#CCC" fill-opacity=".25" stroke="#000" stroke-width="1" points="51 3 51 1 63 1 63 3"/><polygon fill="#CCC" fill-opacity=".25" stroke="#000" stroke-width="1" points="63 3 63 1 63 1 63 3"/><polygon fill="#CCC" fill-opacity=".25" stroke="#000" stroke-width="1" points="51 3 51 3 63 3 63 3"/><polygon fill="#CCC" fill-opacity=".25" stroke="#000" stroke-width="1" points="51 1 51 1 63 1 63 1"/><polygon fill="#CCC" fill-opacity=".25" stroke="#000" stroke-width="1" points="53 13 63 13 63 11 53 11"/><polygon fill="#CCC" fill-opacity=".25" stroke="#000" stroke-width="1" points="53 11 63 11 63 11 53 11"/><polygon fill="#CCC" fill-opacity=".25" stroke="#000" stroke-width="1" points="53 11 63 11 63 13 53 13"/><polygon fill="#CCC" fill-opacity=".25" stroke="#000" stroke-width="1" points="53 13 63 13 63 13 53 13"/><polygon fill="#CCC" fill-opacity=".25" stroke="#000" stroke-width="1" points="53 11 53 11 53 13 53 13"/><polygon fill="#CCC" fill-opacity=".25" stroke="#000" stroke-width="1" points="63 11 63 11 63 13 63 13"/></svg>